<?xml version="1.0" encoding="UTF-8" standalone="no"?>
<!-- Created with Inkscape (http://www.inkscape.org/) -->

<svg
   xmlns:dc="http://purl.org/dc/elements/1.1/"
   xmlns:cc="http://creativecommons.org/ns#"
   xmlns:rdf="http://www.w3.org/1999/02/22-rdf-syntax-ns#"
   xmlns:svg="http://www.w3.org/2000/svg"
   xmlns="http://www.w3.org/2000/svg"
   xmlns:xlink="http://www.w3.org/1999/xlink"
   xmlns:sodipodi="http://sodipodi.sourceforge.net/DTD/sodipodi-0.dtd"
   xmlns:inkscape="http://www.inkscape.org/namespaces/inkscape"
   width="210mm"
   height="297mm"
   id="svg2985"
   version="1.1"
   inkscape:version="0.48.2 r9819"
   sodipodi:docname="final.svg"
   inkscape:export-filename="final.png"
   inkscape:export-xdpi="90"
   inkscape:export-ydpi="90">
  <defs
     id="defs3">
    <linearGradient
       id="linearGradient4552">
      <stop
         style="stop-color:#3c350a;stop-opacity:1;"
         offset="0"
         id="stop4554" />
      <stop
         id="stop4560"
         offset="0.38999999"
         style="stop-color:#1e1a05;stop-opacity:0.49803922;" />
      <stop
         style="stop-color:#0f0d02;stop-opacity:0.24705882;"
         offset="0.68000001"
         id="stop4564" />
      <stop
         style="stop-color:#000000;stop-opacity:0;"
         offset="1"
         id="stop4556" />
    </linearGradient>
    <linearGradient
       id="linearGradient3806">
      <stop
         style="stop-color:#5d9dd0;stop-opacity:1;"
         offset="0"
         id="stop3808" />
      <stop
         style="stop-color:#a9dbe6;stop-opacity:1;"
         offset="1"
         id="stop3810" />
    </linearGradient>
    <linearGradient
       inkscape:collect="always"
       xlink:href="#linearGradient3806"
       id="linearGradient3812"
       x1="355.71429"
       y1="0"
       x2="355.71429"
       y2="1052.3622"
       gradientUnits="userSpaceOnUse" />
    <filter
       id="filter3904"
       inkscape:label="Drop shadow"
       width="1.5"
       height="1.5"
       x="-.25"
       y="-.25">
      <feGaussianBlur
         id="feGaussianBlur3906"
         in="SourceAlpha"
         stdDeviation="4"
         result="blur" />
      <feColorMatrix
         id="feColorMatrix3908"
         result="bluralpha"
         type="matrix"
         values="1 0 0 0 0 0 1 0 0 0 0 0 1 0 0 0 0 0 0.25 0 " />
      <feOffset
         id="feOffset3910"
         in="bluralpha"
         dx="-4"
         dy="-2"
         result="offsetBlur" />
      <feMerge
         id="feMerge3912">
        <feMergeNode
           id="feMergeNode3914"
           in="offsetBlur" />
        <feMergeNode
           id="feMergeNode3916"
           in="SourceGraphic" />
      </feMerge>
    </filter>
    <filter
       inkscape:collect="always"
       id="filter4124"
       x="-0.089428591"
       width="1.1788572"
       y="-0.36944229"
       height="1.7388846">
      <feGaussianBlur
         inkscape:collect="always"
         stdDeviation="4.7426669"
         id="feGaussianBlur4126" />
    </filter>
    <filter
       inkscape:collect="always"
       id="filter4132"
       x="-0.089428591"
       width="1.1788572"
       y="-0.36944229"
       height="1.7388846">
      <feGaussianBlur
         inkscape:collect="always"
         stdDeviation="4.7426669"
         id="feGaussianBlur4134" />
    </filter>
    <filter
       inkscape:collect="always"
       id="filter4136">
      <feGaussianBlur
         inkscape:collect="always"
         stdDeviation="4.3638591"
         id="feGaussianBlur4138" />
    </filter>
    <linearGradient
       inkscape:collect="always"
       xlink:href="#linearGradient4552"
       id="linearGradient4558"
       x1="744.09448"
       y1="466.58209"
       x2="696.14813"
       y2="466.87796"
       gradientUnits="userSpaceOnUse" />
    <filter
       inkscape:collect="always"
       id="filter5129"
       x="-0.053153913"
       width="1.1063078"
       y="-0.47041213"
       height="1.9408243">
      <feGaussianBlur
         inkscape:collect="always"
         stdDeviation="7.9198"
         id="feGaussianBlur5131" />
    </filter>
  </defs>
  <sodipodi:namedview
     inkscape:document-units="mm"
     id="base"
     pagecolor="#ffffff"
     bordercolor="#666666"
     borderopacity="1.0"
     inkscape:pageopacity="0.0"
     inkscape:pageshadow="2"
     inkscape:zoom="0.98994949"
     inkscape:cx="598.39776"
     inkscape:cy="449.78766"
     inkscape:current-layer="layer1"
     showgrid="false"
     inkscape:window-width="1920"
     inkscape:window-height="1028"
     inkscape:window-x="-8"
     inkscape:window-y="-8"
     inkscape:window-maximized="1"
     inkscape:snap-page="false"
     inkscape:snap-grids="false"
     units="mm"
     borderlayer="true"
     inkscape:showpageshadow="false"
     showguides="true"
     inkscape:guide-bbox="true">
    <inkscape:grid
       type="xygrid"
       id="grid4156"
       empspacing="5"
       visible="true"
       enabled="true"
       snapvisiblegridlinesonly="true" />
  </sodipodi:namedview>
  <metadata
     id="metadata4">
    <rdf:RDF>
      <cc:Work
         rdf:about="">
        <dc:format>image/svg+xml</dc:format>
        <dc:type
           rdf:resource="http://purl.org/dc/dcmitype/StillImage" />
        <dc:title />
      </cc:Work>
    </rdf:RDF>
  </metadata>
  <g
     inkscape:groupmode="layer"
     id="layer2"
     inkscape:label="bg"
     sodipodi:insensitive="true">
    <rect
       style="fill:url(#linearGradient3812);fill-opacity:1;stroke:none"
       id="rect3804"
       width="744.09448"
       height="1052.3622"
       x="0"
       y="0" />
  </g>
  <g
     inkscape:groupmode="layer"
     id="layer3"
     inkscape:label="bg星"
     sodipodi:insensitive="true"
     style="display:inline">
    <path
       sodipodi:type="star"
       style="opacity:0.22999998;fill:#ffffff;fill-opacity:1;stroke:none"
       id="path3815"
       sodipodi:sides="5"
       sodipodi:cx="112.12693"
       sodipodi:cy="33.118263"
       sodipodi:r1="75.83548"
       sodipodi:r2="43.984585"
       sodipodi:arg1="0.8419416"
       sodipodi:arg2="1.4702601"
       inkscape:flatsided="false"
       inkscape:rounded="0"
       inkscape:randomized="0"
       d="M 162.63456,89.686804 116.54153,76.880747 73.934766,98.63451 71.870521,50.840147 38.015249,17.04099 82.832502,0.30850581 104.51556,-42.334285 134.27839,-4.8811661 181.53452,2.5632973 155.11171,42.443082 z"
       transform="matrix(2.3080952,-0.06547678,0.06547678,2.3080952,284.57259,123.49153)" />
    <path
       sodipodi:type="star"
       style="opacity:0.22999998;fill:#ffffff;fill-opacity:1;stroke:none"
       id="path3815-1"
       sodipodi:sides="5"
       sodipodi:cx="112.12693"
       sodipodi:cy="33.118263"
       sodipodi:r1="75.83548"
       sodipodi:r2="43.984585"
       sodipodi:arg1="0.8419416"
       sodipodi:arg2="1.4702601"
       inkscape:flatsided="false"
       inkscape:rounded="0"
       inkscape:randomized="0"
       d="M 162.63456,89.686804 116.54153,76.880747 73.934766,98.63451 71.870521,50.840147 38.015249,17.04099 82.832502,0.30850581 104.51556,-42.334285 134.27839,-4.8811661 181.53452,2.5632973 155.11171,42.443082 z"
       transform="matrix(0.65715804,0.20288882,-0.20288882,0.65715804,346.15153,224.18237)" />
    <path
       sodipodi:type="star"
       style="opacity:0.22999998;fill:#ffffff;fill-opacity:1;stroke:none"
       id="path3815-8"
       sodipodi:sides="5"
       sodipodi:cx="112.12693"
       sodipodi:cy="33.118263"
       sodipodi:r1="75.83548"
       sodipodi:r2="43.984585"
       sodipodi:arg1="0.8419416"
       sodipodi:arg2="1.4702601"
       inkscape:flatsided="false"
       inkscape:rounded="0"
       inkscape:randomized="0"
       d="M 162.63456,89.686804 116.54153,76.880747 73.934766,98.63451 71.870521,50.840147 38.015249,17.04099 82.832502,0.30850581 104.51556,-42.334285 134.27839,-4.8811661 181.53452,2.5632973 155.11171,42.443082 z"
       transform="matrix(0.8513678,-0.68647896,0.68647896,0.8513678,597.43336,259.96381)" />
    <path
       sodipodi:type="star"
       style="opacity:0.22999998;fill:#ffffff;fill-opacity:1;stroke:none"
       id="path3815-8-4"
       sodipodi:sides="5"
       sodipodi:cx="112.12693"
       sodipodi:cy="33.118263"
       sodipodi:r1="75.83548"
       sodipodi:r2="43.984585"
       sodipodi:arg1="0.8419416"
       sodipodi:arg2="1.4702601"
       inkscape:flatsided="false"
       inkscape:rounded="0"
       inkscape:randomized="0"
       d="M 162.63456,89.686804 116.54153,76.880747 73.934766,98.63451 71.870521,50.840147 38.015249,17.04099 82.832502,0.30850581 104.51556,-42.334285 134.27839,-4.8811661 181.53452,2.5632973 155.11171,42.443082 z"
       transform="matrix(0.42561977,-0.32448232,0.32448232,0.42561977,333.90606,423.70249)" />
    <path
       sodipodi:type="star"
       style="opacity:0.22999998;fill:#ffffff;fill-opacity:1;stroke:none"
       id="path3815-8-4-9"
       sodipodi:sides="5"
       sodipodi:cx="112.12693"
       sodipodi:cy="33.118263"
       sodipodi:r1="75.83548"
       sodipodi:r2="43.984585"
       sodipodi:arg1="0.8419416"
       sodipodi:arg2="1.4702601"
       inkscape:flatsided="false"
       inkscape:rounded="0"
       inkscape:randomized="0"
       d="M 162.63456,89.686804 116.54153,76.880747 73.934766,98.63451 71.870521,50.840147 38.015249,17.04099 82.832502,0.30850581 104.51556,-42.334285 134.27839,-4.8811661 181.53452,2.5632973 155.11171,42.443082 z"
       transform="matrix(0.30365923,-0.42221616,0.42221616,0.30365923,659.85818,112.16301)" />
    <path
       sodipodi:type="star"
       style="opacity:0.22999998;fill:#ffffff;fill-opacity:1;stroke:none"
       id="path3815-8-5"
       sodipodi:sides="5"
       sodipodi:cx="112.12693"
       sodipodi:cy="33.118263"
       sodipodi:r1="75.83548"
       sodipodi:r2="43.984585"
       sodipodi:arg1="0.8419416"
       sodipodi:arg2="1.4702601"
       inkscape:flatsided="false"
       inkscape:rounded="0"
       inkscape:randomized="0"
       d="M 162.63456,89.686804 116.54153,76.880747 73.934766,98.63451 71.870521,50.840147 38.015249,17.04099 82.832502,0.30850581 104.51556,-42.334285 134.27839,-4.8811661 181.53452,2.5632973 155.11171,42.443082 z"
       transform="matrix(0.73084421,-0.94834751,0.94834751,0.73084421,30.391787,749.31091)" />
    <path
       sodipodi:type="star"
       style="opacity:0.22999998;fill:#ffffff;fill-opacity:1;stroke:none"
       id="path3815-8-4-4"
       sodipodi:sides="5"
       sodipodi:cx="112.12693"
       sodipodi:cy="33.118263"
       sodipodi:r1="75.83548"
       sodipodi:r2="43.984585"
       sodipodi:arg1="0.8419416"
       sodipodi:arg2="1.4702601"
       inkscape:flatsided="false"
       inkscape:rounded="0"
       inkscape:randomized="0"
       d="M 162.63456,89.686804 116.54153,76.880747 73.934766,98.63451 71.870521,50.840147 38.015249,17.04099 82.832502,0.30850581 104.51556,-42.334285 134.27839,-4.8811661 181.53452,2.5632973 155.11171,42.443082 z"
       transform="matrix(-0.09815733,-0.51072552,0.51072552,-0.09815733,252.06998,761.76782)" />
  </g>
  <g
     inkscape:label="絵"
     inkscape:groupmode="layer"
     id="layer1"
     style="display:inline">
    <image
       sodipodi:absref="C:\Users\TAKUYA\Documents\GitHub\tenderBrave.prototype\doc\../img/scr_a.png"
       xlink:href="../img/scr_a.png"
       width="361.42856"
       height="361.42856"
       id="image3778"
       x="22.857141"
       y="232.27803" />
    <image
       sodipodi:absref="C:\Users\TAKUYA\Documents\GitHub\tenderBrave.prototype\doc\../img/scr_b.png"
       xlink:href="../img/scr_b.png"
       width="445.18796"
       height="445.18796"
       id="image3789"
       x="376.09598"
       y="487.11411"
       transform="matrix(0.99366062,0.11242139,-0.11242139,0.99366062,0,0)" />
    <image
       sodipodi:absref="C:\Users\TAKUYA\Documents\GitHub\tenderBrave.prototype\doc\../img/n3.jpg"
       xlink:href="../img/n3.jpg"
       y="762.89685"
       x="-181.05428"
       id="image3800"
       height="285.01517"
       width="285.01517"
       transform="matrix(0.98339011,-0.18150451,0.18150451,0.98339011,0,0)" />
    <image
       sodipodi:absref="C:\Users\TAKUYA\Documents\GitHub\tenderBrave.prototype\doc\../img/y.png"
       xlink:href="../img/y.png"
       width="348.28571"
       height="580.4762"
       id="image2999"
       x="397.14285"
       y="-0.97110397" />
  </g>
  <g
     inkscape:groupmode="layer"
     id="layer5"
     inkscape:label="テキストの後ろ"
     style="display:inline"
     sodipodi:insensitive="true">
    <rect
       style="opacity:0.5;fill:#ffffff;fill-opacity:1;stroke:none;filter:url(#filter4136)"
       id="rect4001"
       width="302.36737"
       height="204.06134"
       x="423.25394"
       y="295.7579"
       ry="12.121831"
       rx="12.121831" />
    <rect
       style="opacity:0.75;fill:#ffffff;fill-opacity:1;stroke:none;filter:url(#filter4132)"
       id="rect4055"
       width="144.45181"
       height="32.830025"
       x="51.978252"
       y="478.11618"
       rx="15.404842"
       ry="14.899766" />
    <rect
       style="opacity:0.75;fill:#ffffff;fill-opacity:1;stroke:none;filter:url(#filter4124)"
       id="rect4055-1"
       width="145.46196"
       height="30.809685"
       x="575.53436"
       y="874.09052"
       rx="15.404842"
       ry="15.404842" />
    <path
       sodipodi:type="arc"
       style="opacity:0.22999998;fill:#000000;fill-opacity:1;stroke:none;filter:url(#filter5129)"
       id="path5119"
       sodipodi:cx="210.11172"
       sodipodi:cy="116.96092"
       sodipodi:rx="178.797"
       sodipodi:ry="20.203051"
       d="m 388.90872,116.96092 a 178.797,20.203051 0 1 1 -357.593992,0 178.797,20.203051 0 1 1 357.593992,0 z"
       transform="matrix(1.0367232,0,0,1.353049,-1.1499759,-46.405299)" />
  </g>
  <g
     inkscape:groupmode="layer"
     id="layer8"
     inkscape:label="罫線"
     style="display:inline"
     sodipodi:insensitive="true">
    <rect
       style="fill:#000000;fill-opacity:0.54901961;stroke:none"
       id="rect4751"
       width="346.74789"
       height="64.495087"
       x="37.791512"
       y="152.98981"
       rx="12.121831"
       ry="12.121831" />
    <path
       style="fill:none;stroke:#ffffff;stroke-width:0.88582677;stroke-linecap:butt;stroke-linejoin:miter;stroke-miterlimit:4;stroke-opacity:1;stroke-dasharray:none"
       d="m 42.857143,175.66575 335.910787,0"
       id="path4837"
       inkscape:connector-curvature="0" />
    <path
       style="fill:none;stroke:#ffffff;stroke-width:0.88582677;stroke-linecap:butt;stroke-linejoin:miter;stroke-miterlimit:4;stroke-opacity:1;stroke-dasharray:none;display:inline"
       d="m 42.857143,195.13004 335.910787,0"
       id="path4837-5"
       inkscape:connector-curvature="0" />
    <path
       style="fill:none;stroke:#ffffff;stroke-width:0.88582677;stroke-linecap:butt;stroke-linejoin:miter;stroke-miterlimit:4;stroke-opacity:1;stroke-dasharray:none;display:inline"
       d="m 203.92858,212.46043 0,-36.67561"
       id="path4837-5-0"
       inkscape:connector-curvature="0"
       sodipodi:nodetypes="cc" />
    <rect
       style="fill:#ffffff;fill-opacity:1;stroke:#ffffff;stroke-width:1.0629921;stroke-linecap:butt;stroke-linejoin:miter;stroke-miterlimit:4;stroke-opacity:1;stroke-dasharray:none;stroke-dashoffset:0"
       id="rect5086"
       width="98.214287"
       height="12.548585"
       x="279.82144"
       y="157.78432"
       rx="7.6785712"
       ry="7.4107146" />
  </g>
  <g
     inkscape:groupmode="layer"
     id="layer4"
     inkscape:label="テキスト"
     style="display:inline"
     sodipodi:insensitive="true">
    <g
       transform="matrix(0.99997946,0.00641004,-0.00641004,0.99997946,0,0)"
       style="font-size:120px;font-style:normal;font-variant:normal;font-weight:normal;font-stretch:normal;line-height:125%;letter-spacing:0px;word-spacing:0px;writing-mode:lr-tb;fill:#ffffff;fill-opacity:1;stroke:none;display:inline;font-family:Lintw Basic;-inkscape-font-specification:Lintw Basic"
       id="text3820-5">
      <path
         style="font-size:32px;font-weight:900;line-height:125%;fill:#ffffff;fill-opacity:1;font-family:Gen Shin Gothic P;-inkscape-font-specification:Gen Shin Gothic P Heavy"
         d="m 89.779343,735.56462 c -1.089293,4.21812 -2.933787,8.31934 -6.02031,11.47632 -0.409684,-3.63667 6.18006,-11.24955 -0.920674,-12.00094 -9.802261,0.007 -19.604633,-0.0214 -29.406827,0.008 -2.101308,7.71019 4.058569,7.20158 2.703979,14.13906 1.077929,4.4738 -2.324936,7.72398 1.23464,10.3987 -5.35264,0.3304 -7.991088,1.0289 -3.123935,5.05137 1.32909,3.70939 3.9225,4.15488 7.423125,2.60873 3.077632,-1.73463 5.970834,-1.62015 9.247606,-0.40304 4.608559,0.80826 9.333801,0.80772 14.005922,0.87899 2.513623,-1.29114 11.271917,0.0837 16.216101,-0.42008 5.35037,-0.6926 13.46076,1.38176 17.11915,-1.01238 0.24336,-0.78653 2.40284,4.18094 5.5075,1.15222 4.23462,-1.33006 8.09144,-4.49289 9.13022,-8.96496 -1.08266,4.7059 1.85857,10.1331 7.18455,9.26664 4.48935,0.92842 10.29468,-0.86827 10.33532,-6.22263 3.25257,-3.84461 -5.46382,-4.42194 -2.37415,-4.73488 4.79005,-1.94615 0.15773,-10.18489 1.42292,-15.04064 2.82184,-8.64324 -8.50732,-3.06916 -11.46377,-5.92668 -0.90726,-4.90114 -10.29976,-1.17649 -10.9948,0.83833 -6.18213,-0.7038 -11.69711,-0.82142 -9.31836,7.01075 1.06834,4.21034 -3.74226,13.13693 2.47841,13.11591 2.54643,-0.58284 4.98339,0.15368 2.19885,1.76071 -2.11719,1.26497 -4.10039,1.57434 -5.12389,0.18909 -4.6712,0.90808 -17.361077,-1.10691 -6.13501,-1.51097 6.60936,2.63607 6.03704,-12.0642 -0.83526,-8.47064 -11.266269,-1.61376 7.181,1.076 6.2938,-2.92056 3.36298,-9.36379 -7.009,-4.99355 -10.47726,-7.52671 1.97228,-8.12856 -8.479797,-3.38743 -11.041423,-3.5096 -1.897987,0.14805 -5.426289,-2.78314 -5.266424,0.77029 z m 85.064557,0.0485 c -7.94993,0.52281 -16.02975,0.0448 -24.03035,0.21654 -2.18177,8.41005 2.59058,9.80958 10.02379,8.58879 9.97006,0.44035 -2.82103,-1.48185 0.54347,5.31243 -0.47477,4.17762 2.18552,11.70343 -4.35365,9.65319 -6.23543,-1.65825 -1.12484,3.04344 -0.42968,6.09663 0.35408,4.55817 6.68547,2.27896 10.01181,1.81086 6.46479,-2.59086 2.29952,-11.5301 4.2409,-16.05877 4.28889,-3.20356 7.76529,-7.20076 11.11516,-11.32148 -2.3871,-1.19359 -4.54272,-4.44453 -7.12145,-4.29819 z m 9.2422,3.62833 c -0.57362,5.67189 2.21594,12.01743 1.04765,17.18114 -4.21538,4.5108 2.06009,11.52504 7.21059,8.45395 3.46735,-1.53789 4.08492,-6.73592 1.12958,-9.03867 0.77453,-6.20151 1.75174,-12.37141 1.72433,-18.63644 -3.00504,1.01361 -11.8455,-2.40424 -11.11215,2.04002 z m -86.852785,8.61941 c -1.659275,2.76167 -5.924235,-0.94824 0,0 z m -12.117139,1.2652 c 3.790058,1.18783 4.533792,4.40867 3.833454,8.13184 9.238565,-1.16272 9.791403,2.49895 0.259646,1.48009 -5.177196,0.21419 -10.87289,0.8545 -16.218853,0.0597 5.464067,-1.00785 13.725856,1.57701 10.784288,-7.50674 0.469907,-1.11661 -1.187477,-4.49939 1.341465,-2.16493 z m 57.425304,7.66331 c 0.53961,5.25242 -2.80171,1.25189 0,0 z"
         id="path4536"
         inkscape:connector-curvature="0" />
    </g>
    <text
       xml:space="preserve"
       style="font-size:120px;font-style:normal;font-variant:normal;font-weight:normal;font-stretch:normal;line-height:125%;letter-spacing:0px;word-spacing:0px;writing-mode:lr-tb;fill:#ff4c7e;fill-opacity:1;stroke:none;font-family:Lintw Basic;-inkscape-font-specification:Lintw Basic"
       x="53.58984"
       y="763.10602"
       id="text3820"
       sodipodi:linespacing="125%"
       transform="matrix(0.99997946,0.00641004,-0.00641004,0.99997946,0,0)"><tspan
         sodipodi:role="line"
         x="53.58984"
         y="763.10602"
         style="font-size:32px;font-style:normal;font-variant:normal;font-weight:900;font-stretch:normal;line-height:125%;fill:#ff4c7e;fill-opacity:1;stroke:none;font-family:Gen Shin Gothic P;-inkscape-font-specification:Gen Shin Gothic P Heavy"
         id="tspan3824">更生完了！</tspan></text>
    <text
       xml:space="preserve"
       style="font-size:20px;font-style:normal;font-variant:normal;font-weight:normal;font-stretch:normal;line-height:125%;letter-spacing:0px;word-spacing:0px;writing-mode:lr-tb;fill:#000000;fill-opacity:1;stroke:none;display:inline;font-family:Koku Gothic Light;-inkscape-font-specification:Koku Gothic Light"
       x="440.42651"
       y="325.05237"
       id="text3922"
       sodipodi:linespacing="125%"><tspan
         sodipodi:role="line"
         id="tspan3924"
         x="440.42651"
         y="325.05237"
         style="font-size:18px;font-style:normal;font-variant:normal;font-weight:bold;font-stretch:normal;line-height:125%;fill:#000000;fill-opacity:1;font-family:'Rounded M+ 1c bold';-inkscape-font-specification:'Rounded M+ 1c bold, Bold'">勇者Ｆ</tspan><tspan
         sodipodi:role="line"
         x="440.42651"
         y="343.60971"
         id="tspan3928"
         style="font-size:14px;font-style:normal;font-variant:normal;font-weight:200;font-stretch:normal;line-height:125%;fill:#000000;fill-opacity:1;font-family:'Rounded M+ 1c light';-inkscape-font-specification:'Rounded M+ 1c light, Ultra-Light'">魔王を倒すべく立ち上がった女勇者。</tspan><tspan
         sodipodi:role="line"
         x="440.42651"
         y="361.10971"
         style="font-size:14px;font-style:normal;font-variant:normal;font-weight:200;font-stretch:normal;line-height:125%;fill:#000000;fill-opacity:1;font-family:'Rounded M+ 1c light';-inkscape-font-specification:'Rounded M+ 1c light, Ultra-Light'"
         id="tspan3936">どこのファンタジーにも居る普通の勇者で</tspan><tspan
         sodipodi:role="line"
         x="440.42651"
         y="378.60971"
         style="font-size:14px;font-style:normal;font-variant:normal;font-weight:200;font-stretch:normal;line-height:125%;fill:#000000;fill-opacity:1;font-family:'Rounded M+ 1c light';-inkscape-font-specification:'Rounded M+ 1c light, Ultra-Light'"
         id="tspan3946">あるが、魔王の手下を倒すとお城に連行し、</tspan><tspan
         sodipodi:role="line"
         x="440.42651"
         y="396.10971"
         style="font-size:14px;font-style:normal;font-variant:normal;font-weight:200;font-stretch:normal;line-height:125%;fill:#000000;fill-opacity:1;font-family:'Rounded M+ 1c light';-inkscape-font-specification:'Rounded M+ 1c light, Ultra-Light'"
         id="tspan3952">魔王への忠誠心を粉々に砕き、ついでに</tspan><tspan
         sodipodi:role="line"
         x="440.42651"
         y="413.60971"
         style="font-size:14px;font-style:normal;font-variant:normal;font-weight:200;font-stretch:normal;line-height:125%;fill:#000000;fill-opacity:1;font-family:'Rounded M+ 1c light';-inkscape-font-specification:'Rounded M+ 1c light, Ultra-Light'"
         id="tspan4146">悪者としてのプライドもバキバキにへし折</tspan><tspan
         sodipodi:role="line"
         x="440.42651"
         y="431.10971"
         style="font-size:14px;font-style:normal;font-variant:normal;font-weight:200;font-stretch:normal;line-height:125%;fill:#000000;fill-opacity:1;font-family:'Rounded M+ 1c light';-inkscape-font-specification:'Rounded M+ 1c light, Ultra-Light'"
         id="tspan3956">った上で善人（善モンスター）へ更生させ</tspan><tspan
         sodipodi:role="line"
         x="440.42651"
         y="448.60971"
         style="font-size:14px;font-style:normal;font-variant:normal;font-weight:200;font-stretch:normal;line-height:125%;fill:#000000;fill-opacity:1;font-family:'Rounded M+ 1c light';-inkscape-font-specification:'Rounded M+ 1c light, Ultra-Light'"
         id="tspan4150">てあげる、優しい心の持ち主なのである。</tspan><tspan
         sodipodi:role="line"
         x="440.42651"
         y="466.10971"
         style="font-size:14px;font-style:normal;font-variant:normal;font-weight:200;font-stretch:normal;line-height:125%;fill:#000000;fill-opacity:1;font-family:'Rounded M+ 1c light';-inkscape-font-specification:'Rounded M+ 1c light, Ultra-Light'"
         id="tspan4240" /><tspan
         sodipodi:role="line"
         x="440.42651"
         y="483.60971"
         style="font-size:14px;font-style:normal;font-variant:normal;font-weight:200;font-stretch:normal;line-height:125%;fill:#000000;fill-opacity:1;font-family:'Rounded M+ 1c light';-inkscape-font-specification:'Rounded M+ 1c light, Ultra-Light'"
         id="tspan4238">間違っても鬼畜ではないのだ。</tspan></text>
    <text
       xml:space="preserve"
       style="font-size:120px;font-style:normal;font-variant:normal;font-weight:normal;font-stretch:normal;line-height:125%;letter-spacing:0px;word-spacing:0px;writing-mode:lr-tb;fill:#000000;fill-opacity:1;stroke:none;font-family:Lintw Basic;-inkscape-font-specification:Lintw Basic"
       x="67.245117"
       y="503.9989"
       id="text3820-6"
       sodipodi:linespacing="125%"
       transform="matrix(0.99995131,0.00986803,-0.00986803,0.99995131,0,0)"><tspan
         sodipodi:role="line"
         x="67.245117"
         y="503.9989"
         style="font-size:28px;font-style:normal;font-variant:normal;font-weight:normal;font-stretch:normal;line-height:125%;fill:#000000;stroke:none;font-family:Honoka Mincho;-inkscape-font-specification:Honoka Mincho"
         id="tspan3824-5">戦闘モード</tspan></text>
    <text
       xml:space="preserve"
       style="font-size:120px;font-style:normal;font-variant:normal;font-weight:normal;font-stretch:normal;line-height:125%;letter-spacing:0px;word-spacing:0px;writing-mode:lr-tb;fill:#000000;fill-opacity:1;stroke:none;font-family:Lintw Basic;-inkscape-font-specification:Lintw Basic"
       x="564.31879"
       y="914.18304"
       id="text3820-6-9"
       sodipodi:linespacing="125%"
       transform="matrix(0.99972326,-0.02352468,0.02352468,0.99972326,0,0)"><tspan
         sodipodi:role="line"
         x="564.31879"
         y="914.18304"
         style="font-size:28px;font-style:normal;font-variant:normal;font-weight:normal;font-stretch:normal;line-height:125%;fill:#000000;stroke:none;font-family:Honoka Mincho;-inkscape-font-specification:Honoka Mincho"
         id="tspan3824-5-0">更生モード</tspan></text>
    <text
       xml:space="preserve"
       style="font-size:14px;font-style:normal;font-variant:normal;font-weight:normal;font-stretch:normal;line-height:158.00000429%;letter-spacing:0px;word-spacing:0px;writing-mode:lr-tb;fill:#000000;fill-opacity:1;stroke:none;font-family:'Rounded M+ 1c light';-inkscape-font-specification:'Rounded M+ 1c light'"
       x="40"
       y="616.30658"
       id="text4152"
       sodipodi:linespacing="158%"><tspan
         sodipodi:role="line"
         id="tspan4154"
         x="40"
         y="616.30658">いわゆる普通のRPGの戦闘が始まるが‥？</tspan></text>
    <path
       style="fill:#000000;fill-opacity:1;stroke:none"
       d="m 29,605.30664 -6,8.4 c 0,1.2 0,2.4 0,3.6 l 12,0 c 0,-1.2 0,-2.4 0,-3.6 z"
       id="rect4158"
       inkscape:connector-curvature="0"
       sodipodi:nodetypes="cccccc" />
    <path
       style="fill:#000000;fill-opacity:1;stroke:none"
       d="m 50.378807,659.87807 -8.4,-6 c -1.2,0 -2.4,0 -3.6,0 l 0,12 c 1.2,0 2.4,0 3.6,0 z"
       id="rect4158-4"
       inkscape:connector-curvature="0"
       sodipodi:nodetypes="cccccc" />
    <text
       xml:space="preserve"
       style="font-size:14px;font-style:normal;font-variant:normal;font-weight:normal;font-stretch:normal;line-height:158.00000429%;letter-spacing:0px;word-spacing:0px;writing-mode:lr-tb;fill:#000000;fill-opacity:1;stroke:none;font-family:'Rounded M+ 1c light';-inkscape-font-specification:'Rounded M+ 1c light'"
       x="55.242386"
       y="664.87799"
       id="text4152-4"
       sodipodi:linespacing="158%"><tspan
         sodipodi:role="line"
         x="55.242386"
         y="664.87799"
         id="tspan4202">勇者Ｆは悪者を倒すと、縛ってお城に</tspan><tspan
         sodipodi:role="line"
         x="55.242386"
         y="686.99799"
         id="tspan4212">連行、徐ろに第二ラウンドを始める。</tspan><tspan
         sodipodi:role="line"
         x="55.242386"
         y="709.11798"
         id="tspan4208">母性本能で悪者のココロを動かせ‥！</tspan></text>
    <text
       xml:space="preserve"
       style="font-size:14px;font-style:normal;font-variant:normal;font-weight:normal;font-stretch:normal;line-height:158.00000429%;letter-spacing:0px;word-spacing:0px;writing-mode:lr-tb;fill:#000000;fill-opacity:1;stroke:none;font-family:'Rounded M+ 1c light';-inkscape-font-specification:'Rounded M+ 1c light'"
       x="115.94519"
       y="1033.2637"
       id="text4152-0"
       sodipodi:linespacing="158%"><tspan
         sodipodi:role="line"
         id="tspan4154-6"
         x="115.94519"
         y="1033.2637">よかったね！　もう魔王の元になんか就くんじゃないゾ！</tspan></text>
    <path
       style="fill:#000000;fill-opacity:1;stroke:none"
       d="m 104.94518,1022.2637 -5.999999,8.4 c 0,1.2 0,2.4 0,3.6 l 11.999999,0 c 0,-1.2 0,-2.4 0,-3.6 z"
       id="rect4158-6"
       inkscape:connector-curvature="0"
       sodipodi:nodetypes="cccccc" />
    <text
       xml:space="preserve"
       style="font-size:39.327034px;font-style:normal;font-variant:normal;font-weight:normal;font-stretch:normal;line-height:158.00000429%;letter-spacing:0px;word-spacing:0px;writing-mode:lr-tb;opacity:0.75;fill:#ffffff;fill-opacity:1;stroke:none;display:inline;font-family:'Rounded M+ 1c light';-inkscape-font-specification:'Rounded M+ 1c light'"
       x="38.15744"
       y="376.56183"
       id="text4409-1"
       sodipodi:linespacing="158%"><tspan
         sodipodi:role="line"
         id="tspan4411-3"
         x="38.15744"
         y="376.56183"
         style="font-style:normal;font-variant:normal;font-weight:900;font-stretch:normal;fill:#ffffff;fill-opacity:1;font-family:Gen Shin Gothic P;-inkscape-font-specification:Gen Shin Gothic P Heavy">いざ　　　　戦闘！</tspan></text>
    <text
       xml:space="preserve"
       style="font-size:39.327034px;font-style:normal;font-variant:normal;font-weight:normal;font-stretch:normal;line-height:158.00000429%;letter-spacing:0px;word-spacing:0px;writing-mode:lr-tb;fill:#64001a;fill-opacity:1;stroke:none;display:inline;font-family:'Rounded M+ 1c light';-inkscape-font-specification:'Rounded M+ 1c light'"
       x="42.15744"
       y="374.56183"
       id="text4409"
       sodipodi:linespacing="158%"><tspan
         sodipodi:role="line"
         id="tspan4411"
         x="42.15744"
         y="374.56183"
         style="font-style:normal;font-variant:normal;font-weight:900;font-stretch:normal;fill:#64001a;fill-opacity:1;font-family:Gen Shin Gothic P;-inkscape-font-specification:Gen Shin Gothic P Heavy">いざ　　　　戦闘！</tspan></text>
    <path
       style="fill:#ffffff;fill-opacity:1"
       d="m 637.625,715.0625 c -3.04163,2.51046 -10.856,0.24817 -15.625,1.03125 -4.43955,1.89378 -0.83209,11.83458 -2,17 0,9.91667 0,19.83333 0,29.75 6.53392,0.72654 12.01522,0.44709 11.87494,-5.63611 5.15417,0.0692 9.79042,-0.30249 14.87506,-0.23889 1.83999,7.57957 -12.82539,-1.34622 -11.125,6.09375 -1.00955,6.8533 -0.0517,11.73921 8,9.53125 11.66667,0 23.33333,0 35,0 -1.01472,-4.82903 3.18215,-14.86965 -5,-12.53125 -8.23635,1.6739 -5.58791,-5.40376 1.34375,-3.09375 4.40129,-1.67163 0.87272,-11.27311 2,-16.21875 -1.39039,-4.67211 3.48626,-15.61126 -4,-14.1875 -10.94717,-0.7355 2.54044,-0.65267 4.65625,-2.15625 -0.4108,-5.37045 2.44807,-14.01057 -6,-11.34375 -11.33333,0 -22.66667,0 -34,0 l 0,1 0,1 z m 50.28125,2.40625 c 0.56114,5.85395 -2.85182,7.58099 -1.65625,14.09375 3.80738,-0.24005 8.10789,-1.11164 6.8125,4.125 0.7471,6.69339 9.67174,5.47059 14.40625,5.3125 4.01275,1.06598 3.00106,-5.2856 2.3125,-7.84375 -2.55389,-1.42076 -6.16911,0.4339 -8.5625,-0.59375 1.42324,-3.5495 12.42534,2.62665 9.78125,-5.03125 -1.18821,-4.11017 -0.78472,-9.76658 -3.8125,-12.0625 -6.42708,0 -12.85417,0 -19.28125,0 l 0,1 0,1 z m 4.5,6 c 1.95616,0.0917 -2.55016,-0.0335 0,0 z m 10.78125,0 c 8.22289,-0.0855 -3.72142,0.17045 -0.96875,0 l 0.96875,0 z m -59,1.9375 c 11.12056,1.51331 -13.71457,1.68083 0,0 z m 45.96875,14.375 c -2.59485,2.20271 -5.19075,5.57723 -1.21875,7.5625 2.63861,1.97953 5.81033,7.62211 8.71875,3.3125 2.75116,-2.01329 3.45872,-5.47697 -0.0937,-7.15625 -2.21575,-1.21981 -5.46615,-6.80149 -7.40625,-3.71875 z M 706.25,743.4375 c -3.80364,5.34448 -8.17762,11.50106 -15.21875,13.0625 -2.92841,0.99535 -8.03256,0.49139 -4.5,4.4375 3.11398,3.35529 1.52027,7.68946 1.875,11.9375 2.78221,0.7331 13.17141,-2.31961 8.21875,2.5 -2.87667,3.62886 -6.84039,5.98096 -10.84375,8.09375 -0.19167,3.03038 3.18678,7.20318 5.96875,6.40625 1.7883,-0.98723 4.00465,-2.72482 2,0.25 -2.13581,4.10415 -5.70121,7.35528 -9.65625,9.75 2.58783,2.19638 6.48466,6.98127 9.6875,3.15625 4.61339,2.41542 -3.13687,3.83361 -5.125,5.59375 -2.36024,2.0605 2.13355,5.31704 4.5,6.4375 1.11892,5.73687 0.35387,13.4687 0.4375,20 -3.45889,5.6415 10.20478,4.83666 8.86758,1.7244 -0.46204,-7.90714 -0.6165,-15.98195 0.22617,-23.88065 -5.1563,0.66066 -3.85625,-0.43881 -0.8125,-2.65625 1.63866,-1.05253 4.93024,2.26315 5.84998,-2.03372 2.43022,-1.65566 2.02744,-4.48639 0.33752,-5.90378 1.27456,-3.53519 6.18218,-9.06425 0.9375,-11.34375 -4.98925,-1.68841 5.28183,-3.99818 2.15625,-7.5 -1.57708,-3.1986 -7.66609,-5.46807 -4.34375,-9.09375 1.65792,-3.2316 5.0785,-7.62599 0.0312,-9.53125 -3.56201,-1.47503 -7.85401,0.15945 -11.6875,-0.4375 7.10008,-2.65048 13.11175,-8.00002 16.65625,-14.6875 -1.5979,-1.71548 -2.7577,-8.59383 -5.5625,-6.28125 z m -74.15625,31.59375 c -3.34811,5.98091 -5.50521,13.28538 -10.5625,18.3125 -1.64684,2.61795 -7.83708,4.97314 -2.59375,7.25 2.56158,1.86667 4.57849,6.58044 8,5.3125 4.43559,2.37967 -3.04327,4.6049 -4.90625,6.1875 -6.06709,1.64916 -3.53647,3.57579 -0.0312,6.375 5.02015,3.39456 0.0293,8.88363 -1.875,12.78125 -4.28317,3.5766 -1.97962,5.21346 2.96208,6.53448 3.46882,2.08815 7.10788,3.45028 8.72542,-0.97198 1.74775,-2.94267 3.3406,-5.98219 4.3125,-9.28125 1.45901,3.59596 -1.35194,9.71901 2.8125,11.625 3.88199,-1.30576 12.21893,0.65412 10.25,-5.5625 -0.59084,-4.72465 0.14424,-1.90097 0.6875,1.25 -0.49139,3.88307 3.21624,5.48117 6.39371,3.61503 3.67595,-0.19709 8.37331,-1.72341 6.07504,-6.14628 -1.67576,-5.69755 0.6635,-0.72019 1.96875,1.96875 1.33619,2.44072 2.15136,7.5388 6,4.9375 2.85147,-1.6939 10.71378,-1.71167 8.125,-6.1875 -1.1533,-3.56173 -4.62152,-7.03068 -5.15625,-10.28125 1.35891,-3.56987 5.78241,-5.73385 5.84375,-9.625 -4.98864,-2.94045 -8.77028,-7.8205 -10.46875,-13.21875 7.93087,2.04545 9.51453,-2.25631 8.3125,-9.34375 0.3831,-3.20698 1.4445,-6.35539 -1.1875,-9.125 -2.15376,-2.70298 -3.93999,-8.60266 -7.73537,-4.47453 -2.39789,0.20933 -8.00929,-1.26111 -12.67088,-0.58797 -1.9929,0.20732 -0.56239,15.11854 -1.59375,8.8125 -0.23474,-3.55107 -5.3448,-4.72306 -8.375,-4.90625 -3.72142,1.40866 -1.46101,-1.87037 -3.6875,-3.25 -3.12738,-0.49331 -6.58253,-2.98547 -9.625,-2 z m 68.59375,9.28125 c 4.07603,3.44632 0.75868,3.77311 -2.78125,1.90625 -1.08668,0.17618 2.81918,-3.65595 2.78125,-1.90625 z m 3.375,4.25 c 1.39023,1.37678 2.35782,1.54142 -0.4375,1.46875 -1.18083,0.64196 0.4773,-1.88887 0.4375,-1.46875 z m -3.34375,9.21875 c 1.18011,0.17851 -0.65445,0.1409 0,0 z m -51.15625,2.125 c 4.77084,-1.439 3.75647,1.55891 1.96875,4.25 -2.61004,4.80663 -7.29681,7.56439 -11.6875,10.53125 4.13524,-4.1687 6.99436,-9.91108 9.71875,-14.78125 z m 11.65625,13.4375 c 1.39426,2.66581 3.13074,5.20718 5.3125,7.3125 -3.1665,0.3957 -6.4856,3.83877 -8.8125,0.71875 -2.50191,0.0904 -10.18737,2.60462 -4.09375,-0.65625 2.90062,-2.09454 5.38093,-4.75063 7.40625,-7.71875 l 0.1875,0.34375 z m -20.9375,3.40625 c 1.57947,1.70734 3.45945,3.0897 4.84375,4.9375 -4.26696,0.59845 -10.24212,1.78994 -12.8125,-0.59375 2.56042,-1.68153 4.85839,-3.65354 6.96875,-5.84375 l 0.5547,0.83205 0.4453,0.66795 z"
       id="path4506"
       inkscape:connector-curvature="0" />
    <image
       sodipodi:absref="C:\Users\TAKUYA\Documents\GitHub\tenderBrave.prototype\doc\ma.png"
       xlink:href="ma.png"
       width="132.8121"
       height="159.61684"
       id="image4264-3"
       x="598.27429"
       y="699.64294"
       style="fill:#ffffff;fill-opacity:1" />
    <path
       style="fill:#ffffff;fill-opacity:1"
       d="m 372.28125,588.71875 c -0.64293,15.1963 2.18304,31.87715 -5.65625,45.59375 -3.80257,2.98082 4.49854,3.81079 6.5625,6.09375 3.90856,3.80733 5.90649,-3.05633 7.125,-5.84375 1.98869,-7.54689 1.05182,1.63455 1.25,5.03125 1.95525,4.62365 11.70309,1.16551 14.71873,0.14471 5.41671,0.28054 12.52382,-1.2278 15.15627,1.85529 7.75504,1.44254 12.0373,-0.5877 9.9375,-9 0.85076,-6.45492 -0.8193,-10.38903 -1.75,-15.0625 -0.74245,-6.65911 1.26238,-10.57096 0.96875,-16.78125 -1.3223,-4.68811 3.42879,-15.44963 -4,-14.03125 -14.77083,0 -29.54167,0 -44.3125,0 l 0,1 0,1 z M 347.5,587.90625 c -1.55773,2.74918 -4.966,2.37679 -7.1875,0.53125 -3.05195,-1.48921 -5.70561,-0.48494 -6.59375,2.875 -1.8772,1.85451 -4.73787,5.33473 -1.00648,6.89054 2.03114,2.07655 1.83241,5.11241 0.85769,8.0796 -0.33108,3.42226 -3.66056,6.35866 -0.16371,8.99861 1.88449,3.91782 6.09572,1.15604 8.5,-0.5 0.2635,6.01947 8.01997,1.37285 11.8125,1.71875 6.50798,-0.0463 5.74869,-8.0907 6.125,-12.5625 -4.62191,-1.87634 -0.39717,-8.28644 0.375,-10.21875 2.04182,-6.43734 -5.1316,-2.08443 -7.59375,-4.90625 -1.55398,-0.61524 -3.55355,-1.38637 -5.125,-0.90625 z m -4.53125,15.96875 c -4.72436,-1.43212 -3.90504,4.70398 0.375,3.0625 0.34576,-2.42786 0.68377,-0.82142 -0.375,-3.0625 z m 52.34375,3.875 c 0.48525,8.78702 -1.73173,6.1432 0,0 z m 12.5625,0 c 0.83914,9.82625 -1.81079,4.91011 0,0 z M 334,621.625 c -2.44565,8.25815 5.1487,6.4763 11,6.4375 5.08368,-0.95799 15.28952,3.20619 12.90625,-5.21875 0.44955,-6.51205 -10.34359,-1.78141 -14.96875,-3.21875 -2.5182,0.89238 -9.70796,-2.04116 -8.9375,2 z m 61.21875,2.4375 c 1.59054,11.10088 -5.84116,0.89495 0,0 z m 14.21875,0 c 1.75574,10.97724 -6.3455,1.0281 0,0 z m -77.78125,13.21875 c -2.44565,8.25815 5.1487,6.4763 11,6.4375 5.79167,0 11.58333,0 17.375,0 1.71933,-7.53183 -1.66812,-9.95688 -9,-8.4375 -6.45833,0 -12.91667,0 -19.375,0 l 0,1 0,1 z M 372.3125,645.75 c -0.0101,9.0517 1.03666,19.32244 -5.53125,26.5 -1.80908,2.61939 7.03256,4.55148 0.875,4.03125 -0.24127,6.11112 -1.4833,13.1961 6.99993,10.61952 3.24668,-0.45418 4.23036,3.98059 7.12664,5.51162 2.41453,1.77154 4.40604,7.18907 7.27968,3.33761 3.14631,-4.28798 4.77251,-2.15605 5.21875,1.875 -0.1172,4.6954 6.53785,1.66777 9.84375,1.875 5.31387,-0.14878 8.52264,-5.21506 7.5625,-10.25 -0.49656,-6.32613 13.42971,1.94242 11.8125,-5.375 2.04448,-5.41544 -2.53892,-7.24306 -2.71875,-8.8125 1.0205,-2.66293 8.50943,-6.46073 2.27247,-6.11647 -5.73469,0.10635 2.99641,-5.03943 -0.14747,-10.41478 -8.36442,-1.37841 -2.97073,-3.59088 -1.75,-8.75 2.76963,-9.10297 -7.43016,-5.23651 -13,-6 -11.9375,0 -23.875,0 -35.8125,0 l -0.0159,0.99987 -0.0154,0.96888 z m -36.59375,2.46875 c 1.01913,5.80038 -4.56808,4.99442 -2.6875,11.65625 2.41032,2.49996 9.64073,0.12439 13.8125,0.875 0.99732,0.73216 -2.93981,3.06177 -4.46875,3.59375 -2.46262,1.39696 -9.1448,1.14511 -4.65625,4.5625 1.39237,2.62949 5.05374,3.58868 3.46875,6.125 0.91551,6.16001 -12.24574,-1.61048 -8.46875,7.5 -1.6809,7.3684 1.33069,10.04431 8.46875,8.59375 -1.93187,-6.37334 3.02152,-6.03074 7.96875,-5.5625 -1.34909,5.99131 -8.08546,7.68974 -13.28125,8.6875 3.04226,3.0767 5.81701,9.65485 10.75,5.84375 8.12147,-3.10075 12.2577,-12.08455 12.375,-20.3125 -2.41641,-2.71844 -6.22998,-2.37798 -9,-2.40625 3.83025,-6.33361 -7.08441,-3.65912 -5.65625,-4.71875 7.72732,-2.45202 12.47266,-9.52057 14.8125,-16.9375 -6.41704,-0.79219 0.52682,-10.85371 -6,-9.5 -5.8125,0 -11.625,0 -17.4375,0 l 0,1 0,1 z m 47.5,18.90625 c 1.56358,2.20563 -3.0261,0.58768 0,0 z m -4.1875,8.96875 c -1.60799,1.48241 0.22443,-1.93944 0,0 z M 395,686.875 c 8.95353,-1.28143 2.30642,5.18126 -1.64925,0.19598 -0.98232,-0.61807 1.62267,0.058 1.64925,-0.19598 z m 1,14.3125 c -10.85633,0.1258 -18.57213,14.24451 -11.4375,22.9375 2.50675,3.63227 7.85847,3.14488 10.65625,1.0625 1.2722,3.99803 5.29087,4.23459 8.4375,2.34375 11.0592,-3.71874 10.95613,-21.58109 0.0625,-25.40625 -2.43025,-1.15337 -5.06489,-0.99961 -7.71875,-0.9375 z M 336.96875,703 c -2.07896,2.13195 -5.64944,5.03386 -1.90625,7.09375 3.25145,1.47455 6.19195,8.6745 9.14461,4.26164 3.97637,-2.58061 4.69788,-5.1927 0.32414,-7.66789 -2.2056,-1.25579 -5.62342,-6.48536 -7.5625,-3.6875 z m 16.6875,4.15625 c -4.52707,8.11735 -13.03003,13.06443 -22.125,13.9375 1.86476,3.67296 4.15785,10.00998 9.30756,6.95216 7.87277,-2.4114 14.78604,-7.81471 19.00494,-14.88966 -1.5969,-1.97148 -2.67201,-8.5804 -6.1875,-6 z m 47.78125,3.1875 c 3.5842,2.94716 0.91033,9.97678 -2.96875,9.53125 1.38742,-3.01203 2.2117,-6.56697 2.96875,-9.53125 z m -9.46875,1.84375 c -0.35429,1.81028 -1.96278,6.19665 -1.375,2.15625 0.0421,-0.57924 1.80927,-3.68681 1.375,-2.15625 z m -40.3125,17.46875 c -2.54776,1.39664 -5.19236,1.93699 -7.78125,3.3125 1.58115,-4.69232 -11.94743,-4.21105 -8.8125,1.28125 0,7.73958 0,15.47917 0,23.21875 6.09685,0.78968 11.07208,0.49234 8.75536,-7.03092 -1.46886,-5.79532 3.91984,-0.96585 6.71339,-0.46908 2.897,0.0769 5.34981,-5.71554 3.375,-7.90625 -1.33305,-1.29139 -6.47462,-1.73689 -2.5625,-2.84375 2.19194,-1.04068 7.73285,-2.06986 5.09375,-5.28125 -1.28657,-1.45018 -2.40699,-5.99268 -4.78125,-4.28125 z m -7.3125,5.59375 c 3.98034,3.3316 -0.38446,5.1382 -0.53309,0.81272 0.12435,-0.22006 -0.28899,-2.99701 0.53309,-0.81272 z m -17.90625,27.375 c 0,12.02083 0,24.04167 0,36.0625 4.83032,-2.85075 3.9734,6.94652 0.625,6.25 -5.69247,2.77361 1.39512,9.40026 -1.25606,13.57498 -2.62159,4.33953 -0.1931,6.71238 3.34981,8.17502 -1.12443,2.44044 -7.42232,2.6605 -3.5625,5.375 2.01453,2.02304 3.71551,6.99478 6.9375,3.90625 2.56535,-0.93625 4.4065,-6.61139 6.35402,-1.85271 4.11624,-2.44133 1.91464,4.92097 10.05223,2.85271 3.7947,-0.53061 -1.89472,1.91326 -1.75,3.9375 -3.34408,6.88548 5.73563,14.3569 11.875,9.8125 5.07345,-3.04715 4.60342,-11.41085 -0.6875,-13.9375 7.84798,1.78548 3.08834,-9.03666 4.375,-13.8125 -0.58501,-3.05519 0.0552,-5.07278 1.78125,-7.21875 -0.93403,-4.39297 -3.53795,-9.0625 -6.75,-12.0625 -3.01336,0.49079 -3.69798,1.11205 -2.375,-2.3125 0.85223,-3.43006 -5.36771,-2.66864 0.65625,-3.09375 5.17903,-0.10372 6.98083,-5.3941 6.19925,-9.81204 0.0858,-9.28087 0.0674,-18.56289 0.11325,-27.84421 -11.97917,0 -23.95833,0 -35.9375,0 l 0,1 0,1 z m 17.03125,33.28125 c 1.73434,2.16441 3.07868,3.45941 1.25,7.96875 -0.0682,4.83644 -1.99221,0.53353 -5.1875,1.09375 -3.15608,0.45295 -0.35654,-5.00048 -0.15625,-6.71875 1.8961,-1.19875 3.12783,-3.04483 4.09375,-5.03125 0,0.89583 0,1.79167 0,2.6875 z m -7.65625,1.1875 c 3.14293,1.90363 -1.45244,1.18348 0,0 z m 14.28125,0.8125 c 1.25517,0.51157 -2.54752,-0.29098 0,0 z m -8.1875,25.78125 c -0.82943,-1.33237 0.52519,-2.56714 0,0 z m 10.21875,2.28125 c 0.61699,1.48803 0.48621,0.47111 0,0 z m 0,9.65625 c 3.65649,-0.55802 -2.62544,2.56149 -1.1875,0 l 1,0 0.1875,0 z m 2.65625,7.40625 c 2.73169,1.33099 -2.20836,3.05996 -0.84375,0.28125 0.22946,-0.20327 0.53613,-0.35859 0.84375,-0.28125 z"
       id="path4510"
       inkscape:connector-curvature="0" />
    <image
       sodipodi:absref="C:\Users\TAKUYA\Documents\GitHub\tenderBrave.prototype\doc\kd.png"
       xlink:href="kd.png"
       style="fill:#ffffff;fill-opacity:1"
       width="154.7585"
       height="309.517"
       id="image4275"
       x="286.46277"
       y="575.95673" />
    <text
       xml:space="preserve"
       style="font-size:16.99088097px;font-style:normal;font-variant:normal;font-weight:normal;font-stretch:normal;line-height:158.00000429%;letter-spacing:0px;word-spacing:0px;writing-mode:lr-tb;fill:#000000;fill-opacity:1;stroke:none;font-family:'Rounded M+ 1c light';-inkscape-font-specification:'Rounded M+ 1c light'"
       x="37.12159"
       y="134.35909"
       id="text4746"
       sodipodi:linespacing="158%"><tspan
         sodipodi:role="line"
         id="tspan4748"
         x="37.12159"
         y="134.35909"
         style="font-size:12px;font-style:normal;font-variant:normal;font-weight:normal;font-stretch:normal;letter-spacing:5.80000019px;fill:#ffffff;font-family:Felix Titling;-inkscape-font-specification:Felix Titling"
         dy="0 8 -8 0 0 0 0 0 0 0 0 0 0 0 0 0 0 0 0 0 0 0 0 0 0 0 7 -7">TENDER  &amp;          BRAVE HEART</tspan></text>
    <text
       xml:space="preserve"
       style="font-size:14px;font-style:normal;font-variant:normal;font-weight:normal;font-stretch:normal;line-height:158.00000429%;letter-spacing:0px;word-spacing:0px;writing-mode:lr-tb;fill:#ffffff;fill-opacity:1;stroke:none;display:inline;font-family:'Rounded M+ 1c light';-inkscape-font-specification:'Rounded M+ 1c light'"
       x="102.33607"
       y="189.57581"
       id="text4152-09"
       sodipodi:linespacing="158%"><tspan
         sodipodi:role="line"
         id="tspan4154-7"
         x="102.33607"
         y="189.57581"
         style="font-size:12px;font-style:normal;font-variant:normal;font-weight:bold;font-stretch:normal;text-align:end;text-anchor:end;font-family:'Rounded M+ 1c bold';-inkscape-font-specification:'Rounded M+ 1c bold, Bold'">発売日</tspan></text>
    <text
       xml:space="preserve"
       style="font-size:14px;font-style:normal;font-variant:normal;font-weight:normal;font-stretch:normal;line-height:158.00000429%;letter-spacing:0px;word-spacing:0px;writing-mode:lr-tb;fill:#ffffff;fill-opacity:1;stroke:none;display:inline;font-family:'Rounded M+ 1c light';-inkscape-font-specification:'Rounded M+ 1c light'"
       x="102.33607"
       y="170.63544"
       id="text4152-09-3"
       sodipodi:linespacing="158%"><tspan
         sodipodi:role="line"
         id="tspan4154-7-7"
         x="102.33607"
         y="170.63544"
         style="font-size:12px;font-style:normal;font-variant:normal;font-weight:bold;font-stretch:normal;text-align:end;text-anchor:end;font-family:'Rounded M+ 1c bold';-inkscape-font-specification:'Rounded M+ 1c bold, Bold'">ジャンル</tspan></text>
    <text
       xml:space="preserve"
       style="font-size:14px;font-style:normal;font-variant:normal;font-weight:normal;font-stretch:normal;line-height:158.00000429%;letter-spacing:0px;word-spacing:0px;writing-mode:lr-tb;fill:#ffffff;fill-opacity:1;stroke:none;display:inline;font-family:'Rounded M+ 1c light';-inkscape-font-specification:'Rounded M+ 1c light'"
       x="102.33607"
       y="208.76871"
       id="text4152-09-0"
       sodipodi:linespacing="158%"><tspan
         sodipodi:role="line"
         id="tspan4154-7-1"
         x="102.33607"
         y="208.76871"
         style="font-size:12px;font-style:normal;font-variant:normal;font-weight:bold;font-stretch:normal;text-align:end;text-anchor:end;font-family:'Rounded M+ 1c bold';-inkscape-font-specification:'Rounded M+ 1c bold, Bold'">メーカー</tspan></text>
    <text
       xml:space="preserve"
       style="font-size:14px;font-style:normal;font-variant:normal;font-weight:normal;font-stretch:normal;line-height:158.00000429%;letter-spacing:0px;word-spacing:0px;writing-mode:lr-tb;fill:#ffffff;fill-opacity:1;stroke:none;display:inline;font-family:'Rounded M+ 1c light';-inkscape-font-specification:'Rounded M+ 1c light'"
       x="123.80181"
       y="170.63544"
       id="text4152-09-3-7"
       sodipodi:linespacing="158%"><tspan
         sodipodi:role="line"
         id="tspan4154-7-7-5"
         x="123.80181"
         y="170.63544"
         style="font-size:12px;font-style:normal;font-variant:normal;font-weight:bold;font-stretch:normal;text-align:start;text-anchor:start;font-family:'Rounded M+ 1c bold';-inkscape-font-specification:'Rounded M+ 1c bold, Bold'">モンスターを愛でる系RPG</tspan></text>
    <text
       xml:space="preserve"
       style="font-size:14px;font-style:normal;font-variant:normal;font-weight:normal;font-stretch:normal;line-height:158.00000429%;letter-spacing:0px;word-spacing:0px;writing-mode:lr-tb;fill:#ffffff;fill-opacity:1;stroke:none;display:inline;font-family:'Rounded M+ 1c light';-inkscape-font-specification:'Rounded M+ 1c light'"
       x="123.80181"
       y="189.57579"
       id="text4152-09-3-7-4"
       sodipodi:linespacing="158%"><tspan
         sodipodi:role="line"
         id="tspan4154-7-7-5-1"
         x="123.80181"
         y="189.57579"
         style="font-size:12px;font-style:normal;font-variant:normal;font-weight:bold;font-stretch:normal;text-align:start;text-anchor:start;font-family:'Rounded M+ 1c bold';-inkscape-font-specification:'Rounded M+ 1c bold, Bold'">未定</tspan></text>
    <text
       xml:space="preserve"
       style="font-size:14px;font-style:normal;font-variant:normal;font-weight:normal;font-stretch:normal;line-height:158.00000429%;letter-spacing:0px;word-spacing:0px;writing-mode:lr-tb;fill:#ffffff;fill-opacity:1;stroke:none;display:inline;font-family:'Rounded M+ 1c light';-inkscape-font-specification:'Rounded M+ 1c light'"
       x="123.80181"
       y="209.02122"
       id="text4152-09-3-7-4-2"
       sodipodi:linespacing="158%"><tspan
         sodipodi:role="line"
         id="tspan4154-7-7-5-1-0"
         x="123.80181"
         y="209.02122"
         style="font-size:12px;font-style:normal;font-variant:normal;font-weight:bold;font-stretch:normal;text-align:start;text-anchor:start;font-family:'Rounded M+ 1c bold';-inkscape-font-specification:'Rounded M+ 1c bold, Bold'">未定</tspan></text>
    <text
       xml:space="preserve"
       style="font-size:14px;font-style:normal;font-variant:normal;font-weight:normal;font-stretch:normal;line-height:158.00000429%;letter-spacing:0px;word-spacing:0px;writing-mode:lr-tb;fill:#ffffff;fill-opacity:1;stroke:none;display:inline;font-family:'Rounded M+ 1c light';-inkscape-font-specification:'Rounded M+ 1c light'"
       x="261.73178"
       y="209.80196"
       id="text4152-09-1"
       sodipodi:linespacing="158%"><tspan
         sodipodi:role="line"
         id="tspan4154-7-4"
         x="261.73178"
         y="209.80196"
         style="font-size:12px;font-style:normal;font-variant:normal;font-weight:bold;font-stretch:normal;text-align:end;text-anchor:end;font-family:'Rounded M+ 1c bold';-inkscape-font-specification:'Rounded M+ 1c bold, Bold'">価格</tspan></text>
    <text
       xml:space="preserve"
       style="font-size:14px;font-style:normal;font-variant:normal;font-weight:normal;font-stretch:normal;line-height:158.00000429%;letter-spacing:0px;word-spacing:0px;writing-mode:lr-tb;fill:#ffffff;fill-opacity:1;stroke:none;display:inline;font-family:'Rounded M+ 1c light';-inkscape-font-specification:'Rounded M+ 1c light'"
       x="283.19751"
       y="209.80194"
       id="text4152-09-3-7-4-6"
       sodipodi:linespacing="158%"><tspan
         sodipodi:role="line"
         id="tspan4154-7-7-5-1-07"
         x="283.19751"
         y="209.80194"
         style="font-size:12px;font-style:normal;font-variant:normal;font-weight:bold;font-stretch:normal;text-align:start;text-anchor:start;font-family:'Rounded M+ 1c bold';-inkscape-font-specification:'Rounded M+ 1c bold, Bold'">未定</tspan></text>
    <text
       xml:space="preserve"
       style="font-size:14px;font-style:normal;font-variant:normal;font-weight:normal;font-stretch:normal;line-height:158.00000429%;letter-spacing:0px;word-spacing:0px;writing-mode:lr-tb;fill:#ffffff;fill-opacity:1;stroke:none;display:inline;font-family:'Rounded M+ 1c light';-inkscape-font-specification:'Rounded M+ 1c light'"
       x="262.09344"
       y="189.75378"
       id="text4152-09-17"
       sodipodi:linespacing="158%"><tspan
         sodipodi:role="line"
         id="tspan4154-7-77"
         x="262.09344"
         y="189.75378"
         style="font-size:12px;font-style:normal;font-variant:normal;font-weight:bold;font-stretch:normal;text-align:end;text-anchor:end;font-family:'Rounded M+ 1c bold';-inkscape-font-specification:'Rounded M+ 1c bold, Bold'">難易度</tspan></text>
    <path
       sodipodi:type="star"
       style="fill:#ffffff;fill-opacity:1;stroke:#ffffff;stroke-width:1.24408388;stroke-linecap:butt;stroke-linejoin:miter;stroke-miterlimit:4;stroke-opacity:1;stroke-dasharray:none;stroke-dashoffset:0;display:inline"
       id="path4997"
       sodipodi:sides="5"
       sodipodi:cx="236.60715"
       sodipodi:cy="182.18361"
       sodipodi:r1="6.7857141"
       sodipodi:r2="3.935715"
       sodipodi:arg1="-1.5707963"
       sodipodi:arg2="-0.9424778"
       inkscape:flatsided="false"
       inkscape:rounded="0"
       inkscape:randomized="0"
       d="m 236.60715,175.39789 2.31335,3.60166 4.14024,1.08716 -2.71051,3.3131 0.24546,4.27356 -3.98854,-1.55405 -3.98855,1.55405 0.24546,-4.27356 -2.71051,-3.3131 4.14024,-1.08716 z"
       inkscape:transform-center-y="-0.55347296"
       transform="matrix(0.85472213,0,0,0.85415325,73.659497,30.134787)" />
    <path
       sodipodi:type="star"
       style="fill:none;stroke:#ffffff;stroke-width:1.24408388;stroke-linecap:butt;stroke-linejoin:miter;stroke-miterlimit:4;stroke-opacity:1;stroke-dasharray:none;stroke-dashoffset:0;display:inline"
       id="path4997-7"
       sodipodi:sides="5"
       sodipodi:cx="236.60715"
       sodipodi:cy="182.18361"
       sodipodi:r1="6.7857141"
       sodipodi:r2="3.935715"
       sodipodi:arg1="-1.5707963"
       sodipodi:arg2="-0.9424778"
       inkscape:flatsided="false"
       inkscape:rounded="0"
       inkscape:randomized="0"
       d="m 236.60715,175.39789 2.31335,3.60166 4.14024,1.08716 -2.71051,3.3131 0.24546,4.27356 -3.98854,-1.55405 -3.98855,1.55405 0.24546,-4.27356 -2.71051,-3.3131 4.14024,-1.08716 z"
       inkscape:transform-center-y="-0.55347296"
       transform="matrix(0.85472213,0,0,0.85415325,88.123787,30.134797)" />
    <path
       sodipodi:type="star"
       style="fill:none;stroke:#ffffff;stroke-width:1.24408388;stroke-linecap:butt;stroke-linejoin:miter;stroke-miterlimit:4;stroke-opacity:1;stroke-dasharray:none;stroke-dashoffset:0;display:inline"
       id="path4997-3"
       sodipodi:sides="5"
       sodipodi:cx="236.60715"
       sodipodi:cy="182.18361"
       sodipodi:r1="6.7857141"
       sodipodi:r2="3.935715"
       sodipodi:arg1="-1.5707963"
       sodipodi:arg2="-0.9424778"
       inkscape:flatsided="false"
       inkscape:rounded="0"
       inkscape:randomized="0"
       d="m 236.60715,175.39789 2.31335,3.60166 4.14024,1.08716 -2.71051,3.3131 0.24546,4.27356 -3.98854,-1.55405 -3.98855,1.55405 0.24546,-4.27356 -2.71051,-3.3131 4.14024,-1.08716 z"
       inkscape:transform-center-y="-0.55347296"
       transform="matrix(0.85472213,0,0,0.85415325,102.67736,30.134797)" />
    <path
       sodipodi:type="star"
       style="fill:none;stroke:#ffffff;stroke-width:1.24408388;stroke-linecap:butt;stroke-linejoin:miter;stroke-miterlimit:4;stroke-opacity:1;stroke-dasharray:none;stroke-dashoffset:0;display:inline"
       id="path4997-7-3"
       sodipodi:sides="5"
       sodipodi:cx="236.60715"
       sodipodi:cy="182.18361"
       sodipodi:r1="6.7857141"
       sodipodi:r2="3.935715"
       sodipodi:arg1="-1.5707963"
       sodipodi:arg2="-0.9424778"
       inkscape:flatsided="false"
       inkscape:rounded="0"
       inkscape:randomized="0"
       d="m 236.60715,175.39789 2.31335,3.60166 4.14024,1.08716 -2.71051,3.3131 0.24546,4.27356 -3.98854,-1.55405 -3.98855,1.55405 0.24546,-4.27356 -2.71051,-3.3131 4.14024,-1.08716 z"
       inkscape:transform-center-y="-0.55347296"
       transform="matrix(0.85472213,0,0,0.85415325,117.14165,30.134807)" />
    <path
       sodipodi:type="star"
       style="fill:none;stroke:#ffffff;stroke-width:1.24408388;stroke-linecap:butt;stroke-linejoin:miter;stroke-miterlimit:4;stroke-opacity:1;stroke-dasharray:none;stroke-dashoffset:0;display:inline"
       id="path4997-7-3-5"
       sodipodi:sides="5"
       sodipodi:cx="236.60715"
       sodipodi:cy="182.18361"
       sodipodi:r1="6.7857141"
       sodipodi:r2="3.935715"
       sodipodi:arg1="-1.5707963"
       sodipodi:arg2="-0.9424778"
       inkscape:flatsided="false"
       inkscape:rounded="0"
       inkscape:randomized="0"
       d="m 236.60715,175.39789 2.31335,3.60166 4.14024,1.08716 -2.71051,3.3131 0.24546,4.27356 -3.98854,-1.55405 -3.98855,1.55405 0.24546,-4.27356 -2.71051,-3.3131 4.14024,-1.08716 z"
       inkscape:transform-center-y="-0.55347296"
       transform="matrix(0.85472213,0,0,0.85415325,131.51665,30.134807)" />
    <text
       xml:space="preserve"
       style="font-size:12.31631756px;font-style:normal;font-variant:normal;font-weight:normal;font-stretch:normal;line-height:158.00000429%;letter-spacing:0px;word-spacing:0px;writing-mode:lr-tb;fill:#000000;fill-opacity:1;stroke:none;display:inline;font-family:'Rounded M+ 1c light';-inkscape-font-specification:'Rounded M+ 1c light'"
       x="291.0054"
       y="164.71117"
       id="text4152-09-3-7-4-6-9"
       sodipodi:linespacing="158%"
       transform="scale(0.97956399,1.0208624)"><tspan
         sodipodi:role="line"
         id="tspan4154-7-7-5-1-07-9"
         x="291.0054"
         y="164.71117"
         style="font-size:10.55684376px;font-style:normal;font-variant:normal;font-weight:bold;font-stretch:normal;text-align:start;letter-spacing:-1.75947392px;text-anchor:start;fill:#000000;fill-opacity:1;font-family:'Rounded M+ 1c bold';-inkscape-font-specification:'Rounded M+ 1c bold, Bold'">ＰＣ・スマートフォン</tspan></text>
  </g>
  <g
     inkscape:groupmode="layer"
     id="layer7"
     inkscape:label="タイトル"
     style="display:inline"
     sodipodi:insensitive="true">
    <path
       style="font-size:100px;font-style:normal;font-variant:normal;font-weight:normal;font-stretch:normal;line-height:158.00000429%;letter-spacing:0px;word-spacing:0px;writing-mode:lr-tb;fill:#ffffff;fill-opacity:1;stroke:none;font-family:HGMinchoB;-inkscape-font-specification:HGMinchoB"
       d="m 121.375,20.9375 -7.8125,7.8125 -45.71875,0 0,2.34375 21.875,0 -1.15625,6.25 -4.3125,0 -8.59375,-3.125 0,25.40625 -3.90625,0 c -0.260453,-1.302039 -0.635453,-2.604121 -1.15625,-3.90625 -0.781285,-1.041619 -1.187534,-1.041619 -1.1875,0 0.260382,4.166709 -1.937532,7.666706 -6.625,10.53125 -1.562526,1.302118 -2.343775,2.6042 -2.34375,3.90625 -2.5e-5,3.125029 1.41664,4.687528 4.28125,4.6875 2.937531,-0.172779 5.073903,-1.617216 6.40625,-4.3125 0.225135,2.515932 1.250745,4.611112 3.0625,6.28125 1.908498,1.642077 4.704782,2.866478 8.375,3.6875 0.734039,0.146615 1.475298,0.327504 2.21875,0.5625 -4.630267,9.361058 -12.271084,16.628171 -20.0625,21.90625 -0.781279,0.78125 -0.635446,1.1875 0.40625,1.1875 7.291629,-3.125 13.656206,-7.177078 19.125,-12.125 2.343699,2.864591 4.687446,5.354172 7.03125,7.4375 -7.812548,5.46875 -16.927123,9.48957 -27.34375,12.09375 -1.302111,0.52082 -1.302111,0.92708 0,1.1875 12.760375,-1.30209 23.697864,-4.42709 32.8125,-9.375 7.55202,4.42708 16.40617,7.55208 26.5625,9.375 1.56242,-3.90625 4.31241,-6.91667 8.21875,-9 -10.93759,-0.52084 -20.71882,-1.9375 -29.3125,-4.28125 3.12493,-2.083328 5.98951,-4.572909 8.59375,-7.4375 5.20825,0.520843 6.13533,-0.895822 2.75,-4.28125 l -5.46875,-5.46875 -4.3125,4.28125 -7.6875,0 c 0.792215,-0.921568 1.992247,-1.891676 3.625,-2.90625 2.34891,-1.524766 5.07324,-2.569788 8.15625,-3.15625 3.67017,-0.586441 6.46643,-1.810843 8.375,-3.6875 2.05526,-1.75934 3.02176,-3.989804 2.875,-6.6875 -1e-5,-0.373724 -0.0394,-0.732682 -0.0937,-1.09375 l 7.0312,-3.15625 c 4.94782,0.260453 6.77074,-0.781213 5.46875,-3.125 l -8.21875,-8.21875 -3.5,5.09375 -3.53125,0 0,-14.46875 c 3.90617,-0.781192 4.83325,-2.458274 2.75,-5.0625 l -7.4375,-7.4375 -3.90625,4.6875 -13.65625,0 5.46875,-6.25 30.46875,0 c 1.30199,-0.781178 1.41658,-1.67701 0.375,-2.71875 L 121.375,20.9375 z m -65.25,0.40625 C 52.739566,44.781308 46.229156,63.906288 36.59375,78.75 c -0.781251,1.562522 -0.375001,1.822938 1.1875,0.78125 C 42.208326,75.625027 46.114572,71.197948 49.5,66.25 l 0,55.40625 3.875,9.28125 3.9375,-9.34375 0,-69 c 3.906224,-1.041616 4.427057,-2.749947 1.5625,-5.09375 2.60414,-7.291605 4.541638,-13.541598 5.84375,-18.75 3.6458,-1.562425 4.312466,-2.97909 1.96875,-4.28125 l -10.5625,-3.125 z m 27.34375,18.34375 25,0 0,4.6875 -25,0 0,-4.6875 z m 0,7.03125 25,0 0,5.09375 -25,0 0,-5.09375 z m 0,7.4375 25,0 0,5.46875 -25,0 0,-5.46875 z m -11.3125,7.8125 5.0625,0 c -0.806804,0.394491 -1.58968,0.883164 -2.375,1.46875 -1.002773,0.801158 -1.803477,1.66394 -2.40625,2.59375 0.02899,-0.187206 0.06855,-0.369335 0.09375,-0.5625 -3.7e-5,-1.562462 -0.114621,-2.71871 -0.375,-3.5 z m 16.46875,0 12.96875,0 c -0.40857,0.182911 -0.8045,0.369359 -1.1875,0.59375 -1.908548,1.17293 -3.697639,3.153807 -5.3125,5.96875 C 93.625629,65.833597 91.867798,63.852721 89.8125,62.5625 89.432575,62.339915 89.034385,62.150522 88.625,61.96875 z m 24.40625,0 6.78125,0 -2.09375,3.84375 c -0.54858,-0.777244 -1.25706,-1.525297 -2.125,-2.21875 -0.82582,-0.659747 -1.67226,-1.196594 -2.5625,-1.625 z m -26.0625,3.25 c 1.626419,-0.0025 3.306672,0.470328 4.65625,1.34375 1.58077,1.023045 2.53537,2.428241 3.5,4.4375 1.061047,-2.096618 1.891267,-3.409398 3.46875,-4.4375 1.49995,-0.977573 3.40337,-1.462093 5.1875,-1.3125 1.7322,0.145239 3.53276,0.884244 4.78125,2.09375 1.28631,1.246147 2.23704,3.0544 2.3125,4.84375 0.0748,1.772738 -0.65441,3.680982 -1.875,4.96875 -1.70976,1.803855 -4.60583,1.887668 -6.8125,3.03125 -2.440456,1.264744 -3.595466,1.820006 -7.0625,4.25 -2.253033,-2.173985 -4.678094,-2.969947 -7.125,-4.25 -2.151168,-1.125342 -4.941996,-1.281561 -6.625,-3.03125 -1.242233,-1.291453 -2.096156,-3.178001 -2.03125,-4.96875 0.06706,-1.85009 1.130048,-3.689999 2.46875,-4.96875 1.180409,-1.127547 2.842451,-1.827753 4.46875,-1.96875 0.228792,-0.01984 0.455154,-0.03089 0.6875,-0.03125 z M 90.875,83.9375 c 0.237321,0.145685 0.480581,0.283464 0.71875,0.4375 1.165227,0.731468 2.032518,1.463506 2.625,2.1875 l -5.28125,0 1.9375,-2.625 z m -3.5,4.96875 15.625,0 c -2.60423,3.12501 -5.208396,5.729174 -7.8125,7.8125 -3.64589,-1.562493 -6.770887,-3.645824 -9.375,-6.25 l 1.5625,-1.5625 z"
       id="path4613"
       inkscape:connector-curvature="0" />
    <path
       inkscape:connector-curvature="0"
       id="path4615"
       style="font-size:50px;font-style:normal;font-variant:normal;font-weight:normal;font-stretch:normal;line-height:158.00000429%;letter-spacing:0px;word-spacing:0px;writing-mode:lr-tb;fill:#ffffff;fill-opacity:1;stroke:none;font-family:'Rounded M+ 1c light';-inkscape-font-specification:'Rounded M+ 1c light'"
       d="m 136.88145,76.687114 c 1.7979,0.359617 3.53588,1.078779 5.21394,2.157491 0.95887,0.599335 0.89893,1.378428 -0.17979,2.337282 -1.43834,5.273892 -2.15751,12.16587 -2.15749,20.675953 -2e-5,2.51708 0.65922,4.43484 1.97771,5.75331 1.07871,1.07875 2.93656,1.61812 5.5735,1.61812 5.51357,0 11.56652,-3.17631 18.15889,-9.528921 0.59926,-0.359569 0.77906,-0.179778 0.53937,0.539371 -6.35265,8.86969 -13.12476,13.30453 -20.31637,13.30453 -2.75682,0 -4.97423,-0.83903 -6.65227,-2.51708 -1.79792,-1.7979 -2.69687,-4.55469 -2.69686,-8.27038 -1e-5,-3.955382 0.23971,-10.967221 0.71917,-21.035531 -1e-5,-1.558156 -0.77911,-2.636899 -2.33729,-3.236236 -0.47944,3.4e-5 -0.53938,-0.239687 -0.17978,-0.719163 0.71914,-0.719129 1.49824,-1.078712 2.33727,-1.078746 z" />
    <path
       inkscape:connector-curvature="0"
       id="path4617"
       style="font-size:50px;font-style:normal;font-variant:normal;font-weight:normal;font-stretch:normal;line-height:158.00000429%;letter-spacing:0px;word-spacing:0px;writing-mode:lr-tb;fill:#ffffff;fill-opacity:1;stroke:none;font-family:'Rounded M+ 1c light';-inkscape-font-specification:'Rounded M+ 1c light'"
       d="m 169.30879,91.671366 c 0.57609,-0.345629 1.15219,-0.518459 1.7283,-0.518489 1.61307,0.34569 3.28376,1.267448 5.01206,2.765276 0.69131,0.576127 0.69131,1.555495 0,2.938106 -0.69133,3.571841 -1.03698,6.913211 -1.03697,10.024121 -1e-5,4.14794 0.40326,6.74037 1.2098,7.77735 0.57609,0.80654 1.03697,0.86415 1.38264,0.17282 l 7.95017,-12.09808 c 0.46086,-0.34564 0.63369,-0.17281 0.51849,0.51849 l -5.53055,12.78941 c -0.4609,0.80654 -0.4609,1.61308 0,2.41961 0.57608,1.26742 0.51848,2.3044 -0.17283,3.11093 -0.92178,0.69132 -2.01636,0.74893 -3.28377,0.17283 -1.72831,-0.92175 -3.05333,-2.47722 -3.97508,-4.6664 -0.92177,-2.18917 -1.38265,-5.70337 -1.38264,-10.54261 -1e-5,-2.88048 0.11521,-6.27946 0.34566,-10.19696 -1e-5,-0.921733 -0.23045,-1.670661 -0.69131,-2.246787 -0.23046,-0.345631 -0.92178,-0.80651 -2.07397,-1.382638 -0.5761,-0.34563 -0.5761,-0.69129 0,-1.036979 z m 32.83766,8.987144 c 2.76524,2.7653 4.14788,5.93384 4.14791,9.50564 -3e-5,2.18918 -0.80657,3.28377 -2.41961,3.28377 -1.26746,0 -2.074,-0.86414 -2.41962,-2.59245 -0.92179,-5.99142 -3.51424,-10.888254 -7.77734,-14.69053 -0.23047,-0.460853 -0.0576,-0.691292 0.51849,-0.691319 3.11091,1.267444 5.76096,2.995739 7.95017,5.184889 z" />
    <path
       sodipodi:nodetypes="cccccccccccccccccccccsccccccccccccccccccccccccccccccccccccccccccccccccccc"
       inkscape:connector-curvature="0"
       id="path4619"
       style="font-size:61.83237457px;font-style:normal;font-variant:normal;font-weight:normal;font-stretch:normal;line-height:158.00000429%;letter-spacing:0px;word-spacing:0px;writing-mode:lr-tb;fill:#ffffff;fill-opacity:1;stroke:none;font-family:HGMinchoB;-inkscape-font-specification:HGMinchoB"
       d="m 268.56799,43.683726 c 1.42935,1.667736 1.42935,2.858928 0,3.573582 -0.7148,0.238301 -1.19127,0.357421 -1.42945,0.357359 l -4.64565,0 -14.29433,5.003016 c 1.42939,3.097159 1.42939,5.360424 0,6.789806 l 16.43849,0 4.64565,-5.717732 7.14715,7.147165 c 2.14409,2.858912 1.42936,4.407464 -2.14414,4.645657 l 0,21.084139 -1.7868,1.072075 c -3.57364,1.429452 -5.7178,1.429452 -6.43243,0 l 0,-2.501508 -19.65471,0 c -0.47653,3.097126 -1.19124,5.955988 -2.14415,8.576598 l 23.943,0 3.93094,-5.003016 6.7898,6.789806 c 2.62056,2.62064 1.6676,4.288309 -2.85886,5.003017 -1.19127,6.19421 -3.33541,11.19722 -6.43245,15.00904 -2.85894,2.62063 -5.59867,3.93094 -8.21924,3.93094 -2.14421,0 -3.21629,-0.47649 -3.21621,-1.42943 l -0.35737,-3.93094 -9.64867,-5.00302 c -2.1442,-1.19118 -2.1442,-1.78679 0,-1.78679 l 11.43547,1.42944 c 2.85879,0.47648 4.88382,-0.47648 6.07508,-2.85887 1.42937,-2.62062 2.50143,-5.955958 3.21623,-10.006028 l -25.37243,0 c -12.91988,22.329618 -35.40941,32.919558 -70.54078,38.337678 -1.1912,-0.23825 -1.1912,-0.59562 0,-1.07208 31.37793,-7.08578 49.99684,-16.06837 62.6789,-37.265598 l -29.6988,0 0,-2.144149 30.4135,0 c 1.19116,-2.858847 1.90588,-5.717711 2.14416,-8.576598 l -17.86792,0 0,3.216224 -1.78679,1.072074 c -3.5736,1.429453 -5.71775,1.429453 -6.43245,0 l 0,-34.306393 8.93396,4.288299 20.01206,0 c -2.38243,-5.955915 -6.90896,-10.125091 -13.57961,-12.50754 -0.71475,-0.476414 -0.71475,-0.833771 0,-1.072074 7.38537,-0.238174 13.46045,1.191256 18.22526,4.2883 3.09706,-1.90585 5.95592,-4.169117 8.57661,-6.789808 l -46.98068,0 0,-2.144149 48.41011,0 5.00302,-5.003016 z m -47.88602,39.309408 18.58263,0 0,-10.006031 -18.58263,0 z m 0,-12.150181 18.58263,0 0,-9.291314 -18.58263,0 z m 25.7298,12.150181 19.65471,0 0,-10.006031 -19.65471,0 z m 0,-12.150181 19.65471,0 0,-9.291314 -19.65471,0 z" />
    <path
       inkscape:connector-curvature="0"
       id="path4621"
       style="font-size:61.83237457px;font-style:normal;font-variant:normal;font-weight:normal;font-stretch:normal;line-height:158.00000429%;letter-spacing:0px;word-spacing:0px;writing-mode:lr-tb;fill:#ffffff;fill-opacity:1;stroke:none;font-family:HGMinchoB;-inkscape-font-specification:HGMinchoB"
       d="m 307.59121,37.545504 c 3.05938,0.966179 3.1399,2.173842 0.24153,3.62299 l 0,6.521384 2.41533,0 3.86453,-3.864524 4.58912,3.622991 c 0.64404,0.644126 0.48302,1.207702 -0.48307,1.690729 l -10.38591,0 0,10.385906 1.20767,0 c 6.76288,-6.440837 12.39863,-12.881703 16.90729,-19.322617 l 4.34759,4.347589 c 2.09323,2.093325 1.20761,2.978944 -2.65686,2.65686 -4.18661,4.347625 -8.37318,8.453677 -12.5597,12.318168 l 11.8351,0 4.83065,-4.830654 5.55526,4.589122 c 0.64402,0.644115 0.56351,1.20769 -0.24154,1.690729 l -23.42867,0 c -2.7374,2.415351 -5.87733,4.911187 -9.41978,7.487514 l 14.97503,0 3.13993,-3.381458 4.83065,4.830654 c 1.44915,1.932278 0.96608,2.978918 -1.44919,3.139925 l 0,19.564146 -1.20767,0.7246 c -2.41537,0.96613 -3.86456,0.96613 -4.34759,0 l 0,-3.13992 -20.04721,0 0,2.89839 -1.20767,0.7246 c -2.41534,0.96612 -3.86454,0.96612 -4.34758,0 l 0,-18.839554 c -4.3476,2.898402 -8.7757,5.152705 -13.2843,6.762916 -1.4492,0.322049 -1.61022,6e-6 -0.48307,-0.966131 4.83065,-2.576339 9.41977,-5.635751 13.76737,-9.178243 l 0,-5.555252 4.58912,1.932261 c 2.73734,-2.093261 5.55522,-4.428075 8.45364,-7.004448 l -24.3948,0 0,-1.449197 19.08108,0 0,-10.385906 -14.97503,0 0,-1.449196 14.97503,0 0,-10.62744 z m -7.48751,51.204934 20.04721,0 0,-9.419775 -20.04721,0 z m 0,-10.868971 20.04721,0 0,-7.97058 -17.63188,0 c -1.12718,0.805126 -1.93229,1.368702 -2.41533,1.690729 z" />
    <path
       sodipodi:nodetypes="cccccccccccccccccccccccccccccccccccccccccccccccccccccccccccsscccccccccccccccccccccccccccccccc"
       inkscape:connector-curvature="0"
       id="path4623"
       style="font-size:61.83237457px;font-style:normal;font-variant:normal;font-weight:normal;font-stretch:normal;line-height:158.00000429%;letter-spacing:0px;word-spacing:0px;writing-mode:lr-tb;fill:#ffffff;fill-opacity:1;stroke:none;font-family:HGMinchoB;-inkscape-font-specification:HGMinchoB"
       d="m 348.80466,55.201162 c 2.09327,0.805158 1.85174,1.690777 -0.7246,2.65686 l 0,12.559701 1.69073,0 3.86453,-3.864523 4.58912,3.62299 c 0.64406,0.644121 0.48304,1.207697 -0.48307,1.690729 l -9.66131,0 0,9.419776 c 5.3137,0.966153 8.21209,3.139946 8.69518,6.521383 -2e-5,2.093299 -0.88564,3.139939 -2.65686,3.139926 -1.28819,1.3e-5 -2.0933,-0.805095 -2.41532,-2.415328 -0.48309,-2.415308 -1.69075,-4.50859 -3.623,-6.27985 l 0,42.009374 -2.41302,5.45674 -2.41763,-5.46475 0,-35.238448 c -2.25431,4.508622 -4.99168,8.453652 -8.21211,11.835108 -0.80511,0.48306 -1.04664,0.32204 -0.7246,-0.48307 4.02554,-7.084949 7.00444,-16.585226 8.93671,-28.500861 l -8.69518,0 0,-1.449196 8.69518,0 0,-15.941159 z m 34.78071,2.173794 c 1.77119,0.966178 1.28813,1.851797 -1.44919,2.65686 l -6.27985,6.279851 7.00445,0 3.86452,-3.864524 4.58912,3.622991 c 0.64403,0.644125 0.48301,1.207701 -0.48307,1.690729 l -16.90729,0 0,6.279851 6.52139,0 3.86452,-3.864524 4.58912,3.622991 c 0.64403,0.644117 0.48301,1.207693 -0.48306,1.690729 l -14.49197,0 0,6.27985 9.41978,0 3.86452,-3.864523 4.58913,3.622991 c 0.64402,0.644109 0.483,1.207685 -0.48307,1.690729 l -17.39036,0 c 0.96609,3.703519 2.41529,6.843441 4.34759,9.419776 l 6.76292,-8.212113 3.62299,2.898393 c 2.25425,1.771255 1.61016,2.737385 -1.93226,2.898392 l -7.48752,3.864524 c 3.70346,4.025552 8.21206,7.165471 13.52584,9.419771 -2.89845,1.4492 -4.7502,2.97891 -5.55526,4.58913 -6.76296,-4.99168 -11.19105,-11.754588 -13.2843,-20.288752 l 0,18.598022 c -4e-5,1.93225 -1.85179,3.46196 -5.55525,4.58912 -0.96616,0.16101 -1.44923,-0.0805 -1.44919,-0.7246 -4e-5,-0.64409 -4e-5,-1.28818 0,-1.93226 -4e-5,-0.16103 -0.0806,-0.32205 -0.24154,-0.48307 l -5.31372,-2.17379 c -1.12718,-0.64409 -1.12718,-0.96613 0,-0.96613 l 5.79679,0 c 0.80507,0 1.20763,-0.40256 1.20766,-1.20767 l 0,-7.004444 -10.3859,8.212114 c -0.48309,3.22043 -1.52974,3.94503 -3.13993,2.17379 l -3.62299,-5.07218 c 6.1188,-1.77124 11.83507,-3.864521 17.14882,-6.279855 l 0,-12.318168 -12.5597,0 0,-1.449197 12.5597,0 0,-6.27985 -11.59357,0 0,-1.449196 11.59357,0 0,-6.279851 -11.8351,0 0,-1.449196 17.39035,0 c 1.44916,-3.220395 2.89835,-7.326447 4.34759,-12.318169 z m -25.60246,28.017795 c 4.99164,1.449214 7.56799,3.864539 7.72904,7.245982 -3e-5,2.093293 -1.04667,3.139934 -3.13992,3.139925 -1.12718,9e-6 -1.77127,-0.724589 -1.93226,-2.173795 -0.4831,-3.542465 -1.44923,-6.0383 -2.8984,-7.487514 -0.48309,-0.483046 -0.40258,-0.724579 0.24154,-0.724598 z m 1.20766,-30.433122 c 5.79675,0.805158 9.01719,2.89844 9.66131,6.279851 0.16098,2.57639 -0.88566,3.864563 -3.13993,3.864523 -1.12718,4e-5 -1.93229,-0.885579 -2.41532,-2.65686 -0.64412,-2.576304 -2.09332,-4.830607 -4.34759,-6.762916 -0.64412,-0.483016 -0.56361,-0.724548 0.24153,-0.724598 z" />
    <path
       inkscape:connector-curvature="0"
       id="path4613-7"
       style="font-size:100px;font-style:normal;font-variant:normal;font-weight:normal;font-stretch:normal;line-height:158.00000429%;letter-spacing:0px;word-spacing:0px;writing-mode:lr-tb;fill:#000000;fill-opacity:1;stroke:none;font-family:HGMinchoB;-inkscape-font-specification:HGMinchoB"
       d="m -67.786735,73.891433 c 3.645777,1.0417 3.515569,2.6042 -0.390625,4.6875 l 0,4.29687 c -5.2e-5,1.30211 0.911405,1.95315 2.734375,1.95313 3.385358,0.26044 6.640563,0.26044 9.765625,0 2.083268,2e-5 3.385348,-0.52081 3.906248,-1.5625 0.52077,-0.78122 1.56243,-3.12497 3.125,-7.03125 0.78118,-1.56247 1.1718,-1.56247 1.17188,0 l 0,5.46875 c -8e-5,1.04169 0.13013,1.69273 0.39062,1.95312 1.56243,1.30211 2.34368,2.47399 2.34375,3.51563 -7e-5,2.08335 -2.21361,3.25523 -6.64062,3.51562 -4.16673,0.26044 -8.203189,0.26044 -12.109378,0 l -3.125,4.296877 14.843748,0 4.29688,-4.296877 5.46875,5.468747 c 3.38533,3.38543 2.47387,4.81772 -2.73438,4.29688 -2.60424,2.86459 -5.46882,5.33854 -8.59375,7.42187 8.59368,2.34375 18.35929,3.77604 29.29688,4.29688 -3.90634,2.08333 -6.64071,5.07812 -8.20313,8.98437 -10.15633,-1.82292 -19.01048,-4.94792 -26.562498,-9.375 -9.114636,4.94791 -20.052125,8.07291 -32.8125,9.375 -1.302111,-0.26042 -1.302111,-0.65105 0,-1.17187 10.416627,-2.60418 19.531202,-6.64063 27.34375,-12.10938 -2.343804,-2.08333 -4.687551,-4.55728 -7.03125,-7.42187 -5.468794,4.94792 -11.848996,8.98437 -19.140625,12.10937 -1.041696,0 -1.171904,-0.39062 -0.390625,-1.17187 8.072879,-5.46875 14.583289,-12.49999 19.53125,-21.093747 -2.343797,2e-5 -3.515671,-1.17186 -3.515625,-3.51563 l 0,-13.67187 z m -12.109375,1.17187 c 0.260376,-1.30204 0.651,-1.30204 1.171875,0 0.520791,2.86462 0.781208,5.46878 0.78125,7.8125 -0.260459,6.25002 -2.473998,9.635437 -6.640625,10.156247 -2.864616,2e-5 -4.296907,-1.432267 -4.296875,-4.296867 -3.2e-5,-1.30206 0.781218,-2.60414 2.34375,-3.90625 4.166629,-2.60414 6.380168,-5.85935 6.640625,-9.76563 z m 16.40625,-3.125 c 5.98952,1.30212 9.114518,3.64587 9.374998,7.03125 -6e-5,2.34378 -1.04173,3.51566 -3.124998,3.51563 -1.302145,3e-5 -2.343811,-0.91143 -3.125,-2.73438 -1.041726,-2.86455 -2.343808,-4.94788 -3.90625,-6.25 -1.041722,-1.04163 -0.781305,-1.56246 0.78125,-1.5625 z m 38.281248,-35.15625 c 1.04158,1.04174 0.91137,1.9532 -0.39062,2.73438 l -30.468753,0 -5.46875,6.25 13.671873,0 3.90625,-4.6875 7.42188,7.42187 c 2.08325,2.60423 1.17179,4.29694 -2.73438,5.07813 l 0,14.45312 3.51563,0 3.51562,-5.07812 8.20313,8.20312 c 1.30199,2.34379 -0.52093,3.38546 -5.46875,3.125 l -6.25,2.73438 c 4.16658,1.82295 6.38012,4.55732 6.64062,8.20312 -0.2605,2.86461 -1.69279,4.2969 -4.29687,4.29688 -1.56259,2e-5 -2.60425,-0.65102 -3.125,-1.95313 -2.34383,-5.46872 -5.33862,-9.50517 -8.98438,-12.10937 -1.30215,-1.04163 -1.17195,-1.56247 0.39063,-1.5625 2.34367,0.52087 4.55721,1.0417 6.64062,1.5625 l 2.73438,-5.07813 -47.656253,0 c 0.260379,0.78129 0.390588,1.95317 0.390625,3.51563 -0.781287,5.98961 -3.385451,9.11461 -7.8125,9.375 -2.86461,3e-5 -4.2969,-1.56247 -4.296875,-4.6875 -2.5e-5,-1.30205 0.781224,-2.60413 2.34375,-3.90625 4.687468,-2.86455 6.901007,-6.38017 6.640625,-10.54688 -3.4e-5,-1.04162 0.39059,-1.04162 1.171875,0 0.520797,1.30213 0.911422,2.60421 1.171875,3.90625 l 3.90625,0 0,-25.39062 8.59375,3.125 4.296875,0 1.171875,-6.25 -21.875,0 0,-2.34375 45.703128,0 7.8125,-7.8125 z M -69.73986,98.89143 c 2.604113,2.60417 5.72911,4.6875 9.375,6.25 2.604104,-2.08333 5.208268,-4.68749 7.812498,-7.8125 l -15.624998,0 z M -88.880485,32.875803 c 2.343716,1.30216 1.692675,2.73445 -1.953125,4.29688 -1.302112,5.2084 -3.255235,11.45839 -5.859375,18.75 2.864557,2.3438 2.343724,4.03651 -1.5625,5.07812 l 0,57.812497 -1.953125,1.17188 c -3.12502,1.56249 -5.07814,1.43228 -5.85938,-0.39063 l 0,-44.921867 c -3.38542,4.94795 -7.29167,9.37502 -11.71874,13.28125 -1.5625,1.04169 -1.95313,0.78127 -1.17188,-0.78125 9.63541,-14.84371 16.14582,-33.98432 19.53125,-57.42188 z m 16.796875,19.92188 24.999998,0 0,-4.6875 -24.999998,0 z m 0,7.42187 24.999998,0 0,-5.07812 -24.999998,0 z m 0,7.8125 24.999998,0 0,-5.46875 -24.999998,0 z" />
    <path
       d="m -53.040338,163.0161 c -0.29364,-1.29019 -1.46812,-2.58038 -3.5234,-3.87058 -3.08301,-1.99393 -6.09258,-3.28412 -9.02874,-3.87058 -3.67022,-0.82102 -6.45959,-2.05257 -8.36809,-3.69465 -1.90852,-1.75934 -2.93618,-3.98785 -3.08298,-6.68555 0.1468,-2.58036 1.39468,-4.80888 3.74363,-6.68555 2.20211,-1.64203 4.47764,-2.52171 6.82659,-2.63903 3.22977,-0.11726 5.94573,0.46919 8.14788,1.75936 2.0553,1.29022 3.81699,3.28415 5.28511,5.9818 1.61487,-2.81494 3.37656,-4.80887 5.28511,-5.9818 2.20209,-1.29017 4.84464,-1.87662 7.92766,-1.75936 2.64251,0.11732 5.06485,1.05564 7.26703,2.81497 2.34888,1.87667 3.52334,4.04654 3.5234,6.50961 0.14676,2.6977 -0.8075,4.92621 -2.86276,6.68555 -1.90857,1.87666 -4.69793,3.10821 -8.3681,3.69465 -3.08301,0.58646 -5.79897,1.64207 -8.14788,3.16684 -2.64258,1.64207 -4.18407,3.16684 -4.62446,4.57432 z"
       style="font-size:47.77616119px;font-style:normal;font-variant:normal;font-weight:normal;font-stretch:normal;line-height:158.00000429%;letter-spacing:0px;word-spacing:0px;writing-mode:lr-tb;fill:#000000;fill-opacity:1;stroke:none;font-family:MS Gothic;-inkscape-font-specification:MS Gothic"
       id="path4644-6"
       inkscape:connector-curvature="0" />
    <path
       sodipodi:nodetypes="caaaaaacaaaaaac"
       d="m -53.037278,159.20773 c -2.25304,-2.17399 -4.66407,-2.97048 -7.11098,-4.25053 -2.15117,-1.12534 -4.95167,-1.25469 -6.63468,-3.00438 -1.24223,-1.29145 -2.09058,-3.18876 -2.02567,-4.97951 0.0671,-1.85009 1.12105,-3.70076 2.45975,-4.97952 1.18041,-1.12754 2.85912,-1.8246 4.48542,-1.9656 1.83033,-0.15868 3.81119,0.31221 5.35357,1.3104 1.58077,1.02305 2.50796,2.4461 3.47259,4.45536 1.06104,-2.09662 1.8951,-3.42725 3.47258,-4.45536 1.49995,-0.97757 3.42475,-1.45999 5.20888,-1.3104 1.7322,0.14524 3.52631,0.88714 4.7748,2.09664 1.28631,1.24615 2.2396,3.05913 2.31506,4.84848 0.0748,1.77274 -0.6604,3.69175 -1.88099,4.97951 -1.70976,1.80386 -4.61742,1.8608 -6.82409,3.00438 -2.44046,1.26475 -3.59921,1.82053 -7.06624,4.25053 z"
       style="font-size:47.77616119px;font-style:normal;font-variant:normal;font-weight:normal;font-stretch:normal;line-height:158.00000429%;letter-spacing:0px;word-spacing:0px;writing-mode:lr-tb;fill:#ffffff;fill-opacity:1;stroke:none;font-family:MS Gothic;-inkscape-font-specification:MS Gothic"
       id="path4644-3-1"
       inkscape:connector-curvature="0" />
  </g>
  <g
     inkscape:groupmode="layer"
     id="layer6"
     inkscape:label="本の影"
     style="opacity:0.38999999;display:inline"
     sodipodi:insensitive="true">
    <rect
       style="opacity:0.75;fill:url(#linearGradient4558);fill-opacity:1;stroke:none"
       id="rect4550"
       width="57.190693"
       height="1052.3622"
       x="686.90375"
       y="0"
       rx="2.2888184e-005"
       ry="0" />
  </g>
</svg>
